<?xml version="1.0" encoding="UTF-8" standalone="no"?>
<!DOCTYPE svg PUBLIC "-//W3C//DTD SVG 1.1//EN"
 "http://www.w3.org/Graphics/SVG/1.1/DTD/svg11.dtd">
<!-- Generated by graphviz version 2.40.1 (20161225.0304)
 -->
<!-- Title: dependencies Pages: 1 -->
<svg width="1117pt" height="211pt"
 viewBox="0.00 0.00 1117.00 211.00" xmlns="http://www.w3.org/2000/svg" xmlns:xlink="http://www.w3.org/1999/xlink">
<g id="graph0" class="graph" transform="scale(1 1) rotate(0) translate(4 207)">
<title>dependencies</title>
<polygon fill="#ffffff" stroke="transparent" points="-4,4 -4,-207 1113,-207 1113,4 -4,4"/>
<text text-anchor="start" x="533.5091" y="-42.4" font-family="sans-serif" font-weight="bold" font-size="14.00" fill="#000000">Legend</text>
<polygon fill="#ffffb3" stroke="transparent" points="320.5,-10 320.5,-30 340.5,-30 340.5,-10 320.5,-10"/>
<text text-anchor="start" x="344.129" y="-15.4" font-family="sans-serif" font-size="14.00" fill="#000000"> &#160;Declarations</text>
<polygon fill="#8dd3c7" stroke="transparent" points="433.5,-10 433.5,-30 453.5,-30 453.5,-10 433.5,-10"/>
<text text-anchor="start" x="457.2251" y="-15.4" font-family="sans-serif" font-size="14.00" fill="#000000"> &#160;Module</text>
<polygon fill="#80b1d3" stroke="transparent" points="519.5,-10 519.5,-30 539.5,-30 539.5,-10 519.5,-10"/>
<text text-anchor="start" x="543.2812" y="-15.4" font-family="sans-serif" font-size="14.00" fill="#000000"> &#160;Bootstrap</text>
<polygon fill="#fdb462" stroke="transparent" points="616.5,-10 616.5,-30 636.5,-30 636.5,-10 616.5,-10"/>
<text text-anchor="start" x="640.1732" y="-15.4" font-family="sans-serif" font-size="14.00" fill="#000000"> &#160;Providers</text>
<polygon fill="#fb8072" stroke="transparent" points="712.5,-10 712.5,-30 732.5,-30 732.5,-10 712.5,-10"/>
<text text-anchor="start" x="736.2258" y="-15.4" font-family="sans-serif" font-size="14.00" fill="#000000"> &#160;Exports</text>
<g id="clust1" class="cluster">
<title>cluster_CoreModule</title>
<polygon fill="none" stroke="#000000" stroke-dasharray="1,5" points="8,-70 8,-195 1101,-195 1101,-70 8,-70"/>
</g>
<g id="clust2" class="cluster">
<title>cluster_CoreModule_declarations</title>
<polygon fill="none" stroke="#000000" points="535,-78 535,-130 1093,-130 1093,-78 535,-78"/>
</g>
<g id="clust7" class="cluster">
<title>cluster_CoreModule_imports</title>
<polygon fill="none" stroke="#000000" points="16,-78 16,-130 527,-130 527,-78 16,-78"/>
</g>
<!-- CoreComponent -->
<g id="node1" class="node">
<title>CoreComponent</title>
<polygon fill="#ffffb3" stroke="#000000" points="1085.0452,-122 976.9548,-122 976.9548,-86 1085.0452,-86 1085.0452,-122"/>
<text text-anchor="middle" x="1031" y="-99.8" font-family="Times,serif" font-size="14.00" fill="#000000">CoreComponent</text>
</g>
<!-- CoreModule -->
<g id="node5" class="node">
<title>CoreModule</title>
<polygon fill="#8dd3c7" stroke="#000000" points="581.2619,-187 578.2619,-191 557.2619,-191 554.2619,-187 494.7381,-187 494.7381,-151 581.2619,-151 581.2619,-187"/>
<text text-anchor="middle" x="538" y="-164.8" font-family="Times,serif" font-size="14.00" fill="#000000">CoreModule</text>
</g>
<!-- CoreComponent&#45;&gt;CoreModule -->
<g id="edge1" class="edge">
<title>CoreComponent&#45;&gt;CoreModule</title>
<path fill="none" stroke="#000000" d="M1031,-122.2921C1031,-144.2057 1031,-178 1031,-178 1031,-178 591.3184,-178 591.3184,-178"/>
<polygon fill="#000000" stroke="#000000" points="591.3184,-174.5001 581.3184,-178 591.3183,-181.5001 591.3184,-174.5001"/>
</g>
<!-- FooterComponent -->
<g id="node2" class="node">
<title>FooterComponent</title>
<polygon fill="#ffffb3" stroke="#000000" points="958.8809,-122 841.1191,-122 841.1191,-86 958.8809,-86 958.8809,-122"/>
<text text-anchor="middle" x="900" y="-99.8" font-family="Times,serif" font-size="14.00" fill="#000000">FooterComponent</text>
</g>
<!-- FooterComponent&#45;&gt;CoreModule -->
<g id="edge2" class="edge">
<title>FooterComponent&#45;&gt;CoreModule</title>
<path fill="none" stroke="#000000" d="M900,-122.1061C900,-141.3391 900,-169 900,-169 900,-169 591.3061,-169 591.3061,-169"/>
<polygon fill="#000000" stroke="#000000" points="591.3061,-165.5001 581.3061,-169 591.3061,-172.5001 591.3061,-165.5001"/>
</g>
<!-- HeaderComponent -->
<g id="node3" class="node">
<title>HeaderComponent</title>
<polygon fill="#ffffb3" stroke="#000000" points="822.7437,-122 701.2563,-122 701.2563,-86 822.7437,-86 822.7437,-122"/>
<text text-anchor="middle" x="762" y="-99.8" font-family="Times,serif" font-size="14.00" fill="#000000">HeaderComponent</text>
</g>
<!-- HeaderComponent&#45;&gt;CoreModule -->
<g id="edge3" class="edge">
<title>HeaderComponent&#45;&gt;CoreModule</title>
<path fill="none" stroke="#000000" d="M762,-122.027C762,-138.3976 762,-160 762,-160 762,-160 591.4551,-160 591.4551,-160"/>
<polygon fill="#000000" stroke="#000000" points="591.4551,-156.5001 581.4551,-160 591.455,-163.5001 591.4551,-156.5001"/>
</g>
<!-- InvalidUrlComponent -->
<g id="node4" class="node">
<title>InvalidUrlComponent</title>
<polygon fill="#ffffb3" stroke="#000000" points="682.647,-122 543.353,-122 543.353,-86 682.647,-86 682.647,-122"/>
<text text-anchor="middle" x="613" y="-99.8" font-family="Times,serif" font-size="14.00" fill="#000000">InvalidUrlComponent</text>
</g>
<!-- InvalidUrlComponent&#45;&gt;CoreModule -->
<g id="edge4" class="edge">
<title>InvalidUrlComponent&#45;&gt;CoreModule</title>
<path fill="none" stroke="#000000" d="M562.2787,-122.1061C562.2787,-122.1061 562.2787,-140.991 562.2787,-140.991"/>
<polygon fill="#000000" stroke="#000000" points="558.7788,-140.9909 562.2787,-150.991 565.7788,-140.991 558.7788,-140.9909"/>
</g>
<!-- CommonModule -->
<g id="node6" class="node">
<title>CommonModule</title>
<polygon fill="#8dd3c7" stroke="#000000" points="518.6681,-122 515.6681,-126 494.6681,-126 491.6681,-122 407.3319,-122 407.3319,-86 518.6681,-86 518.6681,-122"/>
<text text-anchor="middle" x="463" y="-99.8" font-family="Times,serif" font-size="14.00" fill="#000000">CommonModule</text>
</g>
<!-- CommonModule&#45;&gt;CoreModule -->
<g id="edge5" class="edge">
<title>CommonModule&#45;&gt;CoreModule</title>
<path fill="none" stroke="#000000" d="M506.7265,-122.1061C506.7265,-122.1061 506.7265,-140.991 506.7265,-140.991"/>
<polygon fill="#000000" stroke="#000000" points="503.2266,-140.9909 506.7265,-150.991 510.2266,-140.991 503.2266,-140.9909"/>
</g>
<!-- RouterModule -->
<g id="node7" class="node">
<title>RouterModule</title>
<polygon fill="#8dd3c7" stroke="#000000" points="388.6528,-122 385.6528,-126 364.6528,-126 361.6528,-122 291.3472,-122 291.3472,-86 388.6528,-86 388.6528,-122"/>
<text text-anchor="middle" x="340" y="-99.8" font-family="Times,serif" font-size="14.00" fill="#000000">RouterModule</text>
</g>
<!-- RouterModule&#45;&gt;CoreModule -->
<g id="edge6" class="edge">
<title>RouterModule&#45;&gt;CoreModule</title>
<path fill="none" stroke="#000000" d="M340,-122.027C340,-138.3976 340,-160 340,-160 340,-160 484.5481,-160 484.5481,-160"/>
<polygon fill="#000000" stroke="#000000" points="484.5481,-163.5001 494.5481,-160 484.548,-156.5001 484.5481,-163.5001"/>
</g>
<!-- MaterialModule -->
<g id="node8" class="node">
<title>MaterialModule</title>
<polygon fill="#8dd3c7" stroke="#000000" points="273.4706,-122 270.4706,-126 249.4706,-126 246.4706,-122 166.5294,-122 166.5294,-86 273.4706,-86 273.4706,-122"/>
<text text-anchor="middle" x="220" y="-99.8" font-family="Times,serif" font-size="14.00" fill="#000000">MaterialModule</text>
</g>
<!-- MaterialModule&#45;&gt;CoreModule -->
<g id="edge7" class="edge">
<title>MaterialModule&#45;&gt;CoreModule</title>
<path fill="none" stroke="#000000" d="M220,-122.1061C220,-141.3391 220,-169 220,-169 220,-169 484.4502,-169 484.4502,-169"/>
<polygon fill="#000000" stroke="#000000" points="484.4503,-172.5001 494.4502,-169 484.4502,-165.5001 484.4503,-172.5001"/>
</g>
<!-- FlexLayoutModule -->
<g id="node9" class="node">
<title>FlexLayoutModule</title>
<polygon fill="#8dd3c7" stroke="#000000" points="148.0954,-122 145.0954,-126 124.0954,-126 121.0954,-122 23.9046,-122 23.9046,-86 148.0954,-86 148.0954,-122"/>
<text text-anchor="middle" x="86" y="-99.8" font-family="Times,serif" font-size="14.00" fill="#000000">FlexLayoutModule</text>
</g>
<!-- FlexLayoutModule&#45;&gt;CoreModule -->
<g id="edge8" class="edge">
<title>FlexLayoutModule&#45;&gt;CoreModule</title>
<path fill="none" stroke="#000000" d="M86,-122.2921C86,-144.2057 86,-178 86,-178 86,-178 484.6603,-178 484.6603,-178"/>
<polygon fill="#000000" stroke="#000000" points="484.6604,-181.5001 494.6603,-178 484.6603,-174.5001 484.6604,-181.5001"/>
</g>
</g>
</svg>
