<?xml version="1.0" encoding="UTF-8" standalone="no"?>
<!DOCTYPE svg PUBLIC "-//W3C//DTD SVG 1.1//EN"
 "http://www.w3.org/Graphics/SVG/1.1/DTD/svg11.dtd">
<!-- Generated by graphviz version 2.40.1 (20161225.0304)
 -->
<!-- Title: dependencies Pages: 1 -->
<svg width="6755pt" height="227pt"
 viewBox="0.00 0.00 6755.00 227.00" xmlns="http://www.w3.org/2000/svg" xmlns:xlink="http://www.w3.org/1999/xlink">
<g id="graph0" class="graph" transform="scale(1 1) rotate(0) translate(4 223)">
<title>dependencies</title>
<polygon fill="#ffffff" stroke="transparent" points="-4,4 -4,-223 6751,-223 6751,4 -4,4"/>
<text text-anchor="start" x="3352.5091" y="-42.4" font-family="sans-serif" font-weight="bold" font-size="14.00" fill="#000000">Legend</text>
<polygon fill="#ffffb3" stroke="transparent" points="3139.5,-10 3139.5,-30 3159.5,-30 3159.5,-10 3139.5,-10"/>
<text text-anchor="start" x="3163.129" y="-15.4" font-family="sans-serif" font-size="14.00" fill="#000000"> &#160;Declarations</text>
<polygon fill="#8dd3c7" stroke="transparent" points="3252.5,-10 3252.5,-30 3272.5,-30 3272.5,-10 3252.5,-10"/>
<text text-anchor="start" x="3276.2251" y="-15.4" font-family="sans-serif" font-size="14.00" fill="#000000"> &#160;Module</text>
<polygon fill="#80b1d3" stroke="transparent" points="3338.5,-10 3338.5,-30 3358.5,-30 3358.5,-10 3338.5,-10"/>
<text text-anchor="start" x="3362.2812" y="-15.4" font-family="sans-serif" font-size="14.00" fill="#000000"> &#160;Bootstrap</text>
<polygon fill="#fdb462" stroke="transparent" points="3435.5,-10 3435.5,-30 3455.5,-30 3455.5,-10 3435.5,-10"/>
<text text-anchor="start" x="3459.1732" y="-15.4" font-family="sans-serif" font-size="14.00" fill="#000000"> &#160;Providers</text>
<polygon fill="#fb8072" stroke="transparent" points="3531.5,-10 3531.5,-30 3551.5,-30 3551.5,-10 3531.5,-10"/>
<text text-anchor="start" x="3555.2258" y="-15.4" font-family="sans-serif" font-size="14.00" fill="#000000"> &#160;Exports</text>
<g id="clust1" class="cluster">
<title>cluster_MaterialModule</title>
<polygon fill="none" stroke="#000000" stroke-dasharray="1,5" points="8,-86 8,-211 6739,-211 6739,-86 8,-86"/>
</g>
<g id="clust4" class="cluster">
<title>cluster_MaterialModule_exports</title>
<polygon fill="none" stroke="#000000" points="16,-151 16,-203 6731,-203 6731,-151 16,-151"/>
</g>
<!-- A11yModule  -->
<g id="node1" class="node">
<title>A11yModule </title>
<polygon fill="#fb8072" stroke="#000000" points="6723.1565,-195 6628.8435,-195 6628.8435,-159 6723.1565,-159 6723.1565,-195"/>
<text text-anchor="middle" x="6676" y="-172.8" font-family="Times,serif" font-size="14.00" fill="#000000">A11yModule </text>
</g>
<!-- ClipboardModule  -->
<g id="node2" class="node">
<title>ClipboardModule </title>
<polygon fill="#fb8072" stroke="#000000" points="6610.5428,-195 6491.4572,-195 6491.4572,-159 6610.5428,-159 6610.5428,-195"/>
<text text-anchor="middle" x="6551" y="-172.8" font-family="Times,serif" font-size="14.00" fill="#000000">ClipboardModule </text>
</g>
<!-- CdkStepperModule  -->
<g id="node3" class="node">
<title>CdkStepperModule </title>
<polygon fill="#fb8072" stroke="#000000" points="6473.6495,-195 6344.3505,-195 6344.3505,-159 6473.6495,-159 6473.6495,-195"/>
<text text-anchor="middle" x="6409" y="-172.8" font-family="Times,serif" font-size="14.00" fill="#000000">CdkStepperModule </text>
</g>
<!-- CdkTableModule  -->
<g id="node4" class="node">
<title>CdkTableModule </title>
<polygon fill="#fb8072" stroke="#000000" points="6326.2591,-195 6207.7409,-195 6207.7409,-159 6326.2591,-159 6326.2591,-195"/>
<text text-anchor="middle" x="6267" y="-172.8" font-family="Times,serif" font-size="14.00" fill="#000000">CdkTableModule </text>
</g>
<!-- CdkTreeModule  -->
<g id="node5" class="node">
<title>CdkTreeModule </title>
<polygon fill="#fb8072" stroke="#000000" points="6190.0288,-195 6077.9712,-195 6077.9712,-159 6190.0288,-159 6190.0288,-195"/>
<text text-anchor="middle" x="6134" y="-172.8" font-family="Times,serif" font-size="14.00" fill="#000000">CdkTreeModule </text>
</g>
<!-- DragDropModule  -->
<g id="node6" class="node">
<title>DragDropModule </title>
<polygon fill="#fb8072" stroke="#000000" points="6059.799,-195 5940.201,-195 5940.201,-159 6059.799,-159 6059.799,-195"/>
<text text-anchor="middle" x="6000" y="-172.8" font-family="Times,serif" font-size="14.00" fill="#000000">DragDropModule </text>
</g>
<!-- MatAutocompleteModule  -->
<g id="node7" class="node">
<title>MatAutocompleteModule </title>
<polygon fill="#fb8072" stroke="#000000" points="5922.4124,-195 5757.5876,-195 5757.5876,-159 5922.4124,-159 5922.4124,-195"/>
<text text-anchor="middle" x="5840" y="-172.8" font-family="Times,serif" font-size="14.00" fill="#000000">MatAutocompleteModule </text>
</g>
<!-- MatBadgeModule  -->
<g id="node8" class="node">
<title>MatBadgeModule </title>
<polygon fill="#fb8072" stroke="#000000" points="5739.866,-195 5618.134,-195 5618.134,-159 5739.866,-159 5739.866,-195"/>
<text text-anchor="middle" x="5679" y="-172.8" font-family="Times,serif" font-size="14.00" fill="#000000">MatBadgeModule </text>
</g>
<!-- MatBottomSheetModule  -->
<g id="node9" class="node">
<title>MatBottomSheetModule </title>
<polygon fill="#fb8072" stroke="#000000" points="5600.2107,-195 5441.7893,-195 5441.7893,-159 5600.2107,-159 5600.2107,-195"/>
<text text-anchor="middle" x="5521" y="-172.8" font-family="Times,serif" font-size="14.00" fill="#000000">MatBottomSheetModule </text>
</g>
<!-- MatButtonModule  -->
<g id="node10" class="node">
<title>MatButtonModule </title>
<polygon fill="#fb8072" stroke="#000000" points="5423.7177,-195 5300.2823,-195 5300.2823,-159 5423.7177,-159 5423.7177,-195"/>
<text text-anchor="middle" x="5362" y="-172.8" font-family="Times,serif" font-size="14.00" fill="#000000">MatButtonModule </text>
</g>
<!-- MatButtonToggleModule  -->
<g id="node11" class="node">
<title>MatButtonToggleModule </title>
<polygon fill="#fb8072" stroke="#000000" points="5281.8756,-195 5118.1244,-195 5118.1244,-159 5281.8756,-159 5281.8756,-195"/>
<text text-anchor="middle" x="5200" y="-172.8" font-family="Times,serif" font-size="14.00" fill="#000000">MatButtonToggleModule </text>
</g>
<!-- MatCardModule  -->
<g id="node12" class="node">
<title>MatCardModule </title>
<polygon fill="#fb8072" stroke="#000000" points="5100.3116,-195 4987.6884,-195 4987.6884,-159 5100.3116,-159 5100.3116,-195"/>
<text text-anchor="middle" x="5044" y="-172.8" font-family="Times,serif" font-size="14.00" fill="#000000">MatCardModule </text>
</g>
<!-- MatCheckboxModule  -->
<g id="node13" class="node">
<title>MatCheckboxModule </title>
<polygon fill="#fb8072" stroke="#000000" points="4969.3659,-195 4826.6341,-195 4826.6341,-159 4969.3659,-159 4969.3659,-195"/>
<text text-anchor="middle" x="4898" y="-172.8" font-family="Times,serif" font-size="14.00" fill="#000000">MatCheckboxModule </text>
</g>
<!-- MatChipsModule  -->
<g id="node14" class="node">
<title>MatChipsModule </title>
<polygon fill="#fb8072" stroke="#000000" points="4809.2717,-195 4690.7283,-195 4690.7283,-159 4809.2717,-159 4809.2717,-195"/>
<text text-anchor="middle" x="4750" y="-172.8" font-family="Times,serif" font-size="14.00" fill="#000000">MatChipsModule </text>
</g>
<!-- MatStepperModule  -->
<g id="node15" class="node">
<title>MatStepperModule </title>
<polygon fill="#fb8072" stroke="#000000" points="4673.3631,-195 4544.6369,-195 4544.6369,-159 4673.3631,-159 4673.3631,-195"/>
<text text-anchor="middle" x="4609" y="-172.8" font-family="Times,serif" font-size="14.00" fill="#000000">MatStepperModule </text>
</g>
<!-- MatDatepickerModule  -->
<g id="node16" class="node">
<title>MatDatepickerModule </title>
<polygon fill="#fb8072" stroke="#000000" points="4526.5064,-195 4379.4936,-195 4379.4936,-159 4526.5064,-159 4526.5064,-195"/>
<text text-anchor="middle" x="4453" y="-172.8" font-family="Times,serif" font-size="14.00" fill="#000000">MatDatepickerModule </text>
</g>
<!-- MatDialogModule  -->
<g id="node17" class="node">
<title>MatDialogModule </title>
<polygon fill="#fb8072" stroke="#000000" points="4361.7024,-195 4238.2976,-195 4238.2976,-159 4361.7024,-159 4361.7024,-195"/>
<text text-anchor="middle" x="4300" y="-172.8" font-family="Times,serif" font-size="14.00" fill="#000000">MatDialogModule </text>
</g>
<!-- MatDividerModule  -->
<g id="node18" class="node">
<title>MatDividerModule </title>
<polygon fill="#fb8072" stroke="#000000" points="4220.3631,-195 4091.6369,-195 4091.6369,-159 4220.3631,-159 4220.3631,-195"/>
<text text-anchor="middle" x="4156" y="-172.8" font-family="Times,serif" font-size="14.00" fill="#000000">MatDividerModule </text>
</g>
<!-- MatExpansionModule  -->
<g id="node19" class="node">
<title>MatExpansionModule </title>
<polygon fill="#fb8072" stroke="#000000" points="4073.2023,-195 3928.7977,-195 3928.7977,-159 4073.2023,-159 4073.2023,-195"/>
<text text-anchor="middle" x="4001" y="-172.8" font-family="Times,serif" font-size="14.00" fill="#000000">MatExpansionModule </text>
</g>
<!-- MatGridListModule  -->
<g id="node20" class="node">
<title>MatGridListModule </title>
<polygon fill="#fb8072" stroke="#000000" points="3910.5358,-195 3777.4642,-195 3777.4642,-159 3910.5358,-159 3910.5358,-195"/>
<text text-anchor="middle" x="3844" y="-172.8" font-family="Times,serif" font-size="14.00" fill="#000000">MatGridListModule </text>
</g>
<!-- MatIconModule  -->
<g id="node21" class="node">
<title>MatIconModule </title>
<polygon fill="#fb8072" stroke="#000000" points="3759.4758,-195 3648.5242,-195 3648.5242,-159 3759.4758,-159 3759.4758,-195"/>
<text text-anchor="middle" x="3704" y="-172.8" font-family="Times,serif" font-size="14.00" fill="#000000">MatIconModule </text>
</g>
<!-- MatInputModule  -->
<g id="node22" class="node">
<title>MatInputModule </title>
<polygon fill="#fb8072" stroke="#000000" points="3630.6509,-195 3515.3491,-195 3515.3491,-159 3630.6509,-159 3630.6509,-195"/>
<text text-anchor="middle" x="3573" y="-172.8" font-family="Times,serif" font-size="14.00" fill="#000000">MatInputModule </text>
</g>
<!-- MatListModule  -->
<g id="node23" class="node">
<title>MatListModule </title>
<polygon fill="#fb8072" stroke="#000000" points="3497.8787,-195 3390.1213,-195 3390.1213,-159 3497.8787,-159 3497.8787,-195"/>
<text text-anchor="middle" x="3444" y="-172.8" font-family="Times,serif" font-size="14.00" fill="#000000">MatListModule </text>
</g>
<!-- MatMenuModule  -->
<g id="node24" class="node">
<title>MatMenuModule </title>
<polygon fill="#fb8072" stroke="#000000" points="3372.2591,-195 3253.7409,-195 3253.7409,-159 3372.2591,-159 3372.2591,-195"/>
<text text-anchor="middle" x="3313" y="-172.8" font-family="Times,serif" font-size="14.00" fill="#000000">MatMenuModule </text>
</g>
<!-- MatNativeDateModule  -->
<g id="node25" class="node">
<title>MatNativeDateModule </title>
<polygon fill="#fb8072" stroke="#000000" points="3235.8434,-195 3086.1566,-195 3086.1566,-159 3235.8434,-159 3235.8434,-195"/>
<text text-anchor="middle" x="3161" y="-172.8" font-family="Times,serif" font-size="14.00" fill="#000000">MatNativeDateModule </text>
</g>
<!-- MatPaginatorModule  -->
<g id="node26" class="node">
<title>MatPaginatorModule </title>
<polygon fill="#fb8072" stroke="#000000" points="3068.7534,-195 2929.2466,-195 2929.2466,-159 3068.7534,-159 3068.7534,-195"/>
<text text-anchor="middle" x="2999" y="-172.8" font-family="Times,serif" font-size="14.00" fill="#000000">MatPaginatorModule </text>
</g>
<!-- MatProgressBarModule  -->
<g id="node27" class="node">
<title>MatProgressBarModule </title>
<polygon fill="#fb8072" stroke="#000000" points="2911.019,-195 2756.981,-195 2756.981,-159 2911.019,-159 2911.019,-195"/>
<text text-anchor="middle" x="2834" y="-172.8" font-family="Times,serif" font-size="14.00" fill="#000000">MatProgressBarModule </text>
</g>
<!-- MatProgressSpinnerModule  -->
<g id="node28" class="node">
<title>MatProgressSpinnerModule </title>
<polygon fill="#fb8072" stroke="#000000" points="2738.856,-195 2561.144,-195 2561.144,-159 2738.856,-159 2738.856,-195"/>
<text text-anchor="middle" x="2650" y="-172.8" font-family="Times,serif" font-size="14.00" fill="#000000">MatProgressSpinnerModule </text>
</g>
<!-- MatRadioModule  -->
<g id="node29" class="node">
<title>MatRadioModule </title>
<polygon fill="#fb8072" stroke="#000000" points="2543.5414,-195 2424.4586,-195 2424.4586,-159 2543.5414,-159 2543.5414,-195"/>
<text text-anchor="middle" x="2484" y="-172.8" font-family="Times,serif" font-size="14.00" fill="#000000">MatRadioModule </text>
</g>
<!-- MatRippleModule  -->
<g id="node30" class="node">
<title>MatRippleModule </title>
<polygon fill="#fb8072" stroke="#000000" points="2406.432,-195 2283.568,-195 2283.568,-159 2406.432,-159 2406.432,-195"/>
<text text-anchor="middle" x="2345" y="-172.8" font-family="Times,serif" font-size="14.00" fill="#000000">MatRippleModule </text>
</g>
<!-- MatSelectModule  -->
<g id="node31" class="node">
<title>MatSelectModule </title>
<polygon fill="#fb8072" stroke="#000000" points="2265.8074,-195 2146.1926,-195 2146.1926,-159 2265.8074,-159 2265.8074,-195"/>
<text text-anchor="middle" x="2206" y="-172.8" font-family="Times,serif" font-size="14.00" fill="#000000">MatSelectModule </text>
</g>
<!-- MatSidenavModule  -->
<g id="node32" class="node">
<title>MatSidenavModule </title>
<polygon fill="#fb8072" stroke="#000000" points="2128.2023,-195 1997.7977,-195 1997.7977,-159 2128.2023,-159 2128.2023,-195"/>
<text text-anchor="middle" x="2063" y="-172.8" font-family="Times,serif" font-size="14.00" fill="#000000">MatSidenavModule </text>
</g>
<!-- MatSliderModule  -->
<g id="node33" class="node">
<title>MatSliderModule </title>
<polygon fill="#fb8072" stroke="#000000" points="1979.5386,-195 1860.4614,-195 1860.4614,-159 1979.5386,-159 1979.5386,-195"/>
<text text-anchor="middle" x="1920" y="-172.8" font-family="Times,serif" font-size="14.00" fill="#000000">MatSliderModule </text>
</g>
<!-- MatSlideToggleModule  -->
<g id="node34" class="node">
<title>MatSlideToggleModule </title>
<polygon fill="#fb8072" stroke="#000000" points="1842.0358,-195 1687.9642,-195 1687.9642,-159 1842.0358,-159 1842.0358,-195"/>
<text text-anchor="middle" x="1765" y="-172.8" font-family="Times,serif" font-size="14.00" fill="#000000">MatSlideToggleModule </text>
</g>
<!-- MatSnackBarModule  -->
<g id="node35" class="node">
<title>MatSnackBarModule </title>
<polygon fill="#fb8072" stroke="#000000" points="1670.0232,-195 1529.9768,-195 1529.9768,-159 1670.0232,-159 1670.0232,-195"/>
<text text-anchor="middle" x="1600" y="-172.8" font-family="Times,serif" font-size="14.00" fill="#000000">MatSnackBarModule </text>
</g>
<!-- MatSortModule  -->
<g id="node36" class="node">
<title>MatSortModule </title>
<polygon fill="#fb8072" stroke="#000000" points="1512.4334,-195 1403.5666,-195 1403.5666,-159 1512.4334,-159 1512.4334,-195"/>
<text text-anchor="middle" x="1458" y="-172.8" font-family="Times,serif" font-size="14.00" fill="#000000">MatSortModule </text>
</g>
<!-- MatTableModule  -->
<g id="node37" class="node">
<title>MatTableModule </title>
<polygon fill="#fb8072" stroke="#000000" points="1385.973,-195 1268.027,-195 1268.027,-159 1385.973,-159 1385.973,-195"/>
<text text-anchor="middle" x="1327" y="-172.8" font-family="Times,serif" font-size="14.00" fill="#000000">MatTableModule </text>
</g>
<!-- MatTabsModule  -->
<g id="node38" class="node">
<title>MatTabsModule </title>
<polygon fill="#fb8072" stroke="#000000" points="1250.3116,-195 1137.6884,-195 1137.6884,-159 1250.3116,-159 1250.3116,-195"/>
<text text-anchor="middle" x="1194" y="-172.8" font-family="Times,serif" font-size="14.00" fill="#000000">MatTabsModule </text>
</g>
<!-- MatToolbarModule  -->
<g id="node39" class="node">
<title>MatToolbarModule </title>
<polygon fill="#fb8072" stroke="#000000" points="1119.918,-195 990.082,-195 990.082,-159 1119.918,-159 1119.918,-195"/>
<text text-anchor="middle" x="1055" y="-172.8" font-family="Times,serif" font-size="14.00" fill="#000000">MatToolbarModule </text>
</g>
<!-- MatTooltipModule  -->
<g id="node40" class="node">
<title>MatTooltipModule </title>
<polygon fill="#fb8072" stroke="#000000" points="972.3241,-195 845.6759,-195 845.6759,-159 972.3241,-159 972.3241,-195"/>
<text text-anchor="middle" x="909" y="-172.8" font-family="Times,serif" font-size="14.00" fill="#000000">MatTooltipModule </text>
</g>
<!-- MatTreeModule  -->
<g id="node41" class="node">
<title>MatTreeModule </title>
<polygon fill="#fb8072" stroke="#000000" points="827.7423,-195 716.2577,-195 716.2577,-159 827.7423,-159 827.7423,-195"/>
<text text-anchor="middle" x="772" y="-172.8" font-family="Times,serif" font-size="14.00" fill="#000000">MatTreeModule </text>
</g>
<!-- PortalModule  -->
<g id="node42" class="node">
<title>PortalModule </title>
<polygon fill="#fb8072" stroke="#000000" points="698.49,-195 601.51,-195 601.51,-159 698.49,-159 698.49,-195"/>
<text text-anchor="middle" x="650" y="-172.8" font-family="Times,serif" font-size="14.00" fill="#000000">PortalModule </text>
</g>
<!-- ScrollingModule  -->
<g id="node43" class="node">
<title>ScrollingModule </title>
<polygon fill="#fb8072" stroke="#000000" points="584.38,-195 469.62,-195 469.62,-159 584.38,-159 584.38,-195"/>
<text text-anchor="middle" x="527" y="-172.8" font-family="Times,serif" font-size="14.00" fill="#000000">ScrollingModule </text>
</g>
<!-- MatFormFieldModule  -->
<g id="node44" class="node">
<title>MatFormFieldModule </title>
<polygon fill="#fb8072" stroke="#000000" points="451.2121,-195 306.7879,-195 306.7879,-159 451.2121,-159 451.2121,-195"/>
<text text-anchor="middle" x="379" y="-172.8" font-family="Times,serif" font-size="14.00" fill="#000000">MatFormFieldModule </text>
</g>
<!-- FormsModule  -->
<g id="node45" class="node">
<title>FormsModule </title>
<polygon fill="#fb8072" stroke="#000000" points="288.3283,-195 189.6717,-195 189.6717,-159 288.3283,-159 288.3283,-195"/>
<text text-anchor="middle" x="239" y="-172.8" font-family="Times,serif" font-size="14.00" fill="#000000">FormsModule </text>
</g>
<!-- ReactiveFormsModule  -->
<g id="node46" class="node">
<title>ReactiveFormsModule </title>
<polygon fill="#fb8072" stroke="#000000" points="171.8045,-195 24.1955,-195 24.1955,-159 171.8045,-159 171.8045,-195"/>
<text text-anchor="middle" x="98" y="-172.8" font-family="Times,serif" font-size="14.00" fill="#000000">ReactiveFormsModule </text>
</g>
<!-- MaterialModule -->
<g id="node47" class="node">
<title>MaterialModule</title>
<polygon fill="#8dd3c7" stroke="#000000" points="3366.4706,-130 3363.4706,-134 3342.4706,-134 3339.4706,-130 3259.5294,-130 3259.5294,-94 3366.4706,-94 3366.4706,-130"/>
<text text-anchor="middle" x="3313" y="-107.8" font-family="Times,serif" font-size="14.00" fill="#000000">MaterialModule</text>
</g>
<!-- MaterialModule&#45;&gt;A11yModule  -->
<g id="edge1" class="edge">
<title>MaterialModule&#45;&gt;A11yModule </title>
<path fill="none" stroke="#000000" stroke-dasharray="5,2" d="M3313,-93.9489C3313,-79.627 3313,-62 3313,-62 3313,-62 6676,-62 6676,-62 6676,-62 6676,-148.7779 6676,-148.7779"/>
<polygon fill="#000000" stroke="#000000" points="6672.5001,-148.7779 6676,-158.7779 6679.5001,-148.7779 6672.5001,-148.7779"/>
</g>
<!-- MaterialModule&#45;&gt;ClipboardModule  -->
<g id="edge2" class="edge">
<title>MaterialModule&#45;&gt;ClipboardModule </title>
<path fill="none" stroke="#000000" stroke-dasharray="5,2" d="M3323.6971,-93.8196C3323.6971,-80.9618 3323.6971,-66 3323.6971,-66 3323.6971,-66 6551,-66 6551,-66 6551,-66 6551,-148.6706 6551,-148.6706"/>
<polygon fill="#000000" stroke="#000000" points="6547.5001,-148.6706 6551,-158.6706 6554.5001,-148.6706 6547.5001,-148.6706"/>
</g>
<!-- MaterialModule&#45;&gt;CdkStepperModule  -->
<g id="edge3" class="edge">
<title>MaterialModule&#45;&gt;CdkStepperModule </title>
<path fill="none" stroke="#000000" stroke-dasharray="5,2" d="M3334.3941,-93.8701C3334.3941,-83.6855 3334.3941,-73 3334.3941,-73 3334.3941,-73 6409,-73 6409,-73 6409,-73 6409,-148.8846 6409,-148.8846"/>
<polygon fill="#000000" stroke="#000000" points="6405.5001,-148.8845 6409,-158.8846 6412.5001,-148.8846 6405.5001,-148.8845"/>
</g>
<!-- MaterialModule&#45;&gt;CdkTableModule  -->
<g id="edge4" class="edge">
<title>MaterialModule&#45;&gt;CdkTableModule </title>
<path fill="none" stroke="#000000" stroke-dasharray="5,2" d="M3345.0912,-93.7566C3345.0912,-86.5703 3345.0912,-80 3345.0912,-80 3345.0912,-80 6267,-80 6267,-80 6267,-80 6267,-148.755 6267,-148.755"/>
<polygon fill="#000000" stroke="#000000" points="6263.5001,-148.755 6267,-158.755 6270.5001,-148.7551 6263.5001,-148.755"/>
</g>
<!-- MaterialModule&#45;&gt;CdkTreeModule  -->
<g id="edge5" class="edge">
<title>MaterialModule&#45;&gt;CdkTreeModule </title>
<path fill="none" stroke="#000000" stroke-dasharray="5,2" d="M3355.7882,-93.8314C3355.7882,-89.9541 3355.7882,-87 3355.7882,-87 3355.7882,-87 6134,-87 6134,-87 6134,-87 6134,-148.7872 6134,-148.7872"/>
<polygon fill="#000000" stroke="#000000" points="6130.5001,-148.7871 6134,-158.7872 6137.5001,-148.7872 6130.5001,-148.7871"/>
</g>
<!-- MaterialModule&#45;&gt;DragDropModule  -->
<g id="edge6" class="edge">
<title>MaterialModule&#45;&gt;DragDropModule </title>
<path fill="none" stroke="#000000" stroke-dasharray="5,2" d="M3359.3539,-130.08C3359.3539,-131.8464 3359.3539,-133 3359.3539,-133 3359.3539,-133 6000,-133 6000,-133 6000,-133 6000,-148.8495 6000,-148.8495"/>
<polygon fill="#000000" stroke="#000000" points="5996.5001,-148.8494 6000,-158.8495 6003.5001,-148.8495 5996.5001,-148.8494"/>
</g>
<!-- MaterialModule&#45;&gt;MatAutocompleteModule  -->
<g id="edge7" class="edge">
<title>MaterialModule&#45;&gt;MatAutocompleteModule </title>
<path fill="none" stroke="#000000" stroke-dasharray="5,2" d="M3352.2226,-130.1592C3352.2226,-135.0433 3352.2226,-139 3352.2226,-139 3352.2226,-139 5840,-139 5840,-139 5840,-139 5840,-148.8903 5840,-148.8903"/>
<polygon fill="#000000" stroke="#000000" points="5836.5001,-148.8903 5840,-158.8903 5843.5001,-148.8904 5836.5001,-148.8903"/>
</g>
<!-- MaterialModule&#45;&gt;MatBadgeModule  -->
<g id="edge8" class="edge">
<title>MaterialModule&#45;&gt;MatBadgeModule </title>
<path fill="none" stroke="#000000" stroke-dasharray="5,2" d="M3345.0912,-130.2434C3345.0912,-137.4297 3345.0912,-144 3345.0912,-144 3345.0912,-144 5679,-144 5679,-144 5679,-144 5679,-148.9551 5679,-148.9551"/>
<polygon fill="#000000" stroke="#000000" points="5675.5001,-148.9551 5679,-158.9551 5682.5001,-148.9552 5675.5001,-148.9551"/>
</g>
<!-- MaterialModule&#45;&gt;MatBottomSheetModule  -->
<g id="edge9" class="edge">
<title>MaterialModule&#45;&gt;MatBottomSheetModule </title>
<path fill="none" stroke="#000000" stroke-dasharray="5,2" d="M3337.9598,-130.1299C3337.9598,-140.3145 3337.9598,-151 3337.9598,-151 3337.9598,-151 5521,-151 5521,-151 5521,-151 5521,-151.7942 5521,-151.7942"/>
<polygon fill="#000000" stroke="#000000" points="5517.5001,-148.9421 5521,-158.9421 5524.5001,-148.9422 5517.5001,-148.9421"/>
</g>
<!-- MaterialModule&#45;&gt;MatButtonModule  -->
<g id="edge10" class="edge">
<title>MaterialModule&#45;&gt;MatButtonModule </title>
<path fill="none" stroke="#000000" stroke-dasharray="5,2" d="M3323.6971,-130.0439C3323.6971,-142.5633 3323.6971,-157 3323.6971,-157 3323.6971,-157 5341.3804,-157 5341.3804,-157 5341.3804,-157 5341.3804,-157.1846 5341.3804,-157.1846"/>
<polygon fill="#000000" stroke="#000000" points="5337.881,-148.8455 5341.3804,-158.8457 5344.881,-148.8459 5337.881,-148.8455"/>
</g>
<!-- MaterialModule&#45;&gt;MatButtonModule  -->
<g id="edge48" class="edge">
<title>MaterialModule&#45;&gt;MatButtonModule </title>
<path fill="none" stroke="#000000" stroke-dasharray="5,2" d="M3330.8284,-130.4854C3330.8284,-142.1399 3330.8284,-155 3330.8284,-155 3330.8284,-155 5382.6196,-155 5382.6196,-155 5382.6196,-155 5382.6196,-155.3832 5382.6196,-155.3832"/>
<polygon fill="#000000" stroke="#000000" points="5379.1199,-148.832 5382.6196,-158.8321 5386.1199,-148.8322 5379.1199,-148.832"/>
</g>
<!-- MaterialModule&#45;&gt;MatButtonToggleModule  -->
<g id="edge11" class="edge">
<title>MaterialModule&#45;&gt;MatButtonToggleModule </title>
<path fill="none" stroke="#000000" stroke-dasharray="5,2" d="M3366.685,-96C3674.3481,-96 5200,-96 5200,-96 5200,-96 5200,-148.6198 5200,-148.6198"/>
<polygon fill="#000000" stroke="#000000" points="5196.5001,-148.6198 5200,-158.6198 5203.5001,-148.6199 5196.5001,-148.6198"/>
</g>
<!-- MaterialModule&#45;&gt;MatCardModule  -->
<g id="edge12" class="edge">
<title>MaterialModule&#45;&gt;MatCardModule </title>
<path fill="none" stroke="#000000" stroke-dasharray="5,2" d="M3366.8042,-98C3661.1057,-98 5062.8019,-98 5062.8019,-98 5062.8019,-98 5062.8019,-148.6772 5062.8019,-148.6772"/>
<polygon fill="#000000" stroke="#000000" points="5059.302,-148.6772 5062.8019,-158.6772 5066.302,-148.6773 5059.302,-148.6772"/>
</g>
<!-- MaterialModule&#45;&gt;MatCardModule  -->
<g id="edge53" class="edge">
<title>MaterialModule&#45;&gt;MatCardModule </title>
<path fill="none" stroke="#000000" stroke-dasharray="5,2" d="M3366.5944,-100C3656.6162,-100 5025.1981,-100 5025.1981,-100 5025.1981,-100 5025.1981,-148.7521 5025.1981,-148.7521"/>
<polygon fill="#000000" stroke="#000000" points="5021.6982,-148.752 5025.1981,-158.7521 5028.6982,-148.7521 5021.6982,-148.752"/>
</g>
<!-- MaterialModule&#45;&gt;MatCheckboxModule  -->
<g id="edge13" class="edge">
<title>MaterialModule&#45;&gt;MatCheckboxModule </title>
<path fill="none" stroke="#000000" stroke-dasharray="5,2" d="M3366.644,-102C3643.5132,-102 4898,-102 4898,-102 4898,-102 4898,-148.8446 4898,-148.8446"/>
<polygon fill="#000000" stroke="#000000" points="4894.5001,-148.8446 4898,-158.8446 4901.5001,-148.8446 4894.5001,-148.8446"/>
</g>
<!-- MaterialModule&#45;&gt;MatChipsModule  -->
<g id="edge14" class="edge">
<title>MaterialModule&#45;&gt;MatChipsModule </title>
<path fill="none" stroke="#000000" stroke-dasharray="5,2" d="M3366.7094,-104C3627.5836,-104 4750,-104 4750,-104 4750,-104 4750,-148.9551 4750,-148.9551"/>
<polygon fill="#000000" stroke="#000000" points="4746.5001,-148.955 4750,-158.9551 4753.5001,-148.9551 4746.5001,-148.955"/>
</g>
<!-- MaterialModule&#45;&gt;MatStepperModule  -->
<g id="edge15" class="edge">
<title>MaterialModule&#45;&gt;MatStepperModule </title>
<path fill="none" stroke="#000000" stroke-dasharray="5,2" d="M3366.6285,-106C3611.2052,-106 4609,-106 4609,-106 4609,-106 4609,-148.7157 4609,-148.7157"/>
<polygon fill="#000000" stroke="#000000" points="4605.5001,-148.7157 4609,-158.7157 4612.5001,-148.7158 4605.5001,-148.7157"/>
</g>
<!-- MaterialModule&#45;&gt;MatDatepickerModule  -->
<g id="edge16" class="edge">
<title>MaterialModule&#45;&gt;MatDatepickerModule </title>
<path fill="none" stroke="#000000" stroke-dasharray="5,2" d="M3366.836,-108C3592.8051,-108 4453,-108 4453,-108 4453,-108 4453,-148.8711 4453,-148.8711"/>
<polygon fill="#000000" stroke="#000000" points="4449.5001,-148.871 4453,-158.8711 4456.5001,-148.8711 4449.5001,-148.871"/>
</g>
<!-- MaterialModule&#45;&gt;MatDialogModule  -->
<g id="edge17" class="edge">
<title>MaterialModule&#45;&gt;MatDialogModule </title>
<path fill="none" stroke="#000000" stroke-dasharray="5,2" d="M3366.7663,-110C3572.7311,-110 4300,-110 4300,-110 4300,-110 4300,-148.692 4300,-148.692"/>
<polygon fill="#000000" stroke="#000000" points="4296.5001,-148.6919 4300,-158.692 4303.5001,-148.692 4296.5001,-148.6919"/>
</g>
<!-- MaterialModule&#45;&gt;MatDividerModule  -->
<g id="edge18" class="edge">
<title>MaterialModule&#45;&gt;MatDividerModule </title>
<path fill="none" stroke="#000000" stroke-dasharray="5,2" d="M3366.5909,-114C3549.016,-114 4134.6062,-114 4134.6062,-114 4134.6062,-114 4134.6062,-148.7778 4134.6062,-148.7778"/>
<polygon fill="#000000" stroke="#000000" points="4131.1063,-148.7778 4134.6062,-158.7778 4138.1063,-148.7778 4131.1063,-148.7778"/>
</g>
<!-- MaterialModule&#45;&gt;MatDividerModule  -->
<g id="edge50" class="edge">
<title>MaterialModule&#45;&gt;MatDividerModule </title>
<path fill="none" stroke="#000000" stroke-dasharray="5,2" d="M3366.7451,-112C3555.5928,-112 4177.3938,-112 4177.3938,-112 4177.3938,-112 4177.3938,-148.8939 4177.3938,-148.8939"/>
<polygon fill="#000000" stroke="#000000" points="4173.8939,-148.8938 4177.3938,-158.8939 4180.8939,-148.8939 4173.8939,-148.8938"/>
</g>
<!-- MaterialModule&#45;&gt;MatExpansionModule  -->
<g id="edge19" class="edge">
<title>MaterialModule&#45;&gt;MatExpansionModule </title>
<path fill="none" stroke="#000000" stroke-dasharray="5,2" d="M3366.6996,-116C3528.6192,-116 4001,-116 4001,-116 4001,-116 4001,-148.698 4001,-148.698"/>
<polygon fill="#000000" stroke="#000000" points="3997.5001,-148.698 4001,-158.698 4004.5001,-148.698 3997.5001,-148.698"/>
</g>
<!-- MaterialModule&#45;&gt;MatGridListModule  -->
<g id="edge20" class="edge">
<title>MaterialModule&#45;&gt;MatGridListModule </title>
<path fill="none" stroke="#000000" stroke-dasharray="5,2" d="M3366.8373,-118C3501.8329,-118 3844,-118 3844,-118 3844,-118 3844,-148.9775 3844,-148.9775"/>
<polygon fill="#000000" stroke="#000000" points="3840.5001,-148.9774 3844,-158.9775 3847.5001,-148.9775 3840.5001,-148.9774"/>
</g>
<!-- MaterialModule&#45;&gt;MatIconModule  -->
<g id="edge21" class="edge">
<title>MaterialModule&#45;&gt;MatIconModule </title>
<path fill="none" stroke="#000000" stroke-dasharray="5,2" d="M3366.7795,-122C3469.9604,-122 3685.5875,-122 3685.5875,-122 3685.5875,-122 3685.5875,-148.9909 3685.5875,-148.9909"/>
<polygon fill="#000000" stroke="#000000" points="3682.0876,-148.9909 3685.5875,-158.9909 3689.0876,-148.991 3682.0876,-148.9909"/>
</g>
<!-- MaterialModule&#45;&gt;MatIconModule  -->
<g id="edge47" class="edge">
<title>MaterialModule&#45;&gt;MatIconModule </title>
<path fill="none" stroke="#000000" stroke-dasharray="5,2" d="M3366.5235,-120C3477.4997,-120 3722.4125,-120 3722.4125,-120 3722.4125,-120 3722.4125,-148.9648 3722.4125,-148.9648"/>
<polygon fill="#000000" stroke="#000000" points="3718.9126,-148.9648 3722.4125,-158.9648 3725.9126,-148.9649 3718.9126,-148.9648"/>
</g>
<!-- MaterialModule&#45;&gt;MatInputModule  -->
<g id="edge22" class="edge">
<title>MaterialModule&#45;&gt;MatInputModule </title>
<path fill="none" stroke="#000000" stroke-dasharray="5,2" d="M3366.7423,-126C3437.714,-126 3553.8082,-126 3553.8082,-126 3553.8082,-126 3553.8082,-148.8757 3553.8082,-148.8757"/>
<polygon fill="#000000" stroke="#000000" points="3550.3083,-148.8757 3553.8082,-158.8757 3557.3083,-148.8757 3550.3083,-148.8757"/>
</g>
<!-- MaterialModule&#45;&gt;MatInputModule  -->
<g id="edge52" class="edge">
<title>MaterialModule&#45;&gt;MatInputModule </title>
<path fill="none" stroke="#000000" stroke-dasharray="5,2" d="M3366.5006,-124C3447.5687,-124 3592.1918,-124 3592.1918,-124 3592.1918,-124 3592.1918,-148.7604 3592.1918,-148.7604"/>
<polygon fill="#000000" stroke="#000000" points="3588.6919,-148.7604 3592.1918,-158.7604 3595.6919,-148.7604 3588.6919,-148.7604"/>
</g>
<!-- MaterialModule&#45;&gt;MatListModule  -->
<g id="edge23" class="edge">
<title>MaterialModule&#45;&gt;MatListModule </title>
<path fill="none" stroke="#000000" stroke-dasharray="5,2" d="M3366.6607,-128C3402.8381,-128 3444,-128 3444,-128 3444,-128 3444,-148.7542 3444,-148.7542"/>
<polygon fill="#000000" stroke="#000000" points="3440.5001,-148.7542 3444,-158.7542 3447.5001,-148.7542 3440.5001,-148.7542"/>
</g>
<!-- MaterialModule&#45;&gt;MatMenuModule  -->
<g id="edge24" class="edge">
<title>MaterialModule&#45;&gt;MatMenuModule </title>
<path fill="none" stroke="#000000" stroke-dasharray="5,2" d="M3316.5657,-130.1061C3316.5657,-130.1061 3316.5657,-148.991 3316.5657,-148.991"/>
<polygon fill="#000000" stroke="#000000" points="3313.0658,-148.9909 3316.5657,-158.991 3320.0658,-148.991 3313.0658,-148.9909"/>
</g>
<!-- MaterialModule&#45;&gt;MatMenuModule  -->
<g id="edge46" class="edge">
<title>MaterialModule&#45;&gt;MatMenuModule </title>
<path fill="none" stroke="#000000" stroke-dasharray="5,2" d="M3309.4343,-130.1061C3309.4343,-130.1061 3309.4343,-148.991 3309.4343,-148.991"/>
<polygon fill="#000000" stroke="#000000" points="3305.9344,-148.9909 3309.4343,-158.991 3312.9344,-148.991 3305.9344,-148.9909"/>
</g>
<!-- MaterialModule&#45;&gt;MatNativeDateModule  -->
<g id="edge25" class="edge">
<title>MaterialModule&#45;&gt;MatNativeDateModule </title>
<path fill="none" stroke="#000000" stroke-dasharray="5,2" d="M3259.4105,-128C3215.6488,-128 3161,-128 3161,-128 3161,-128 3161,-148.7542 3161,-148.7542"/>
<polygon fill="#000000" stroke="#000000" points="3157.5001,-148.7542 3161,-158.7542 3164.5001,-148.7542 3157.5001,-148.7542"/>
</g>
<!-- MaterialModule&#45;&gt;MatPaginatorModule  -->
<g id="edge26" class="edge">
<title>MaterialModule&#45;&gt;MatPaginatorModule </title>
<path fill="none" stroke="#000000" stroke-dasharray="5,2" d="M3259.3783,-126C3169.6961,-126 2999,-126 2999,-126 2999,-126 2999,-148.8757 2999,-148.8757"/>
<polygon fill="#000000" stroke="#000000" points="2995.5001,-148.8757 2999,-158.8757 3002.5001,-148.8757 2995.5001,-148.8757"/>
</g>
<!-- MaterialModule&#45;&gt;MatProgressBarModule  -->
<g id="edge27" class="edge">
<title>MaterialModule&#45;&gt;MatProgressBarModule </title>
<path fill="none" stroke="#000000" stroke-dasharray="5,2" d="M3259.4469,-124C3134.4535,-124 2834,-124 2834,-124 2834,-124 2834,-148.7604 2834,-148.7604"/>
<polygon fill="#000000" stroke="#000000" points="2830.5001,-148.7604 2834,-158.7604 2837.5001,-148.7604 2830.5001,-148.7604"/>
</g>
<!-- MaterialModule&#45;&gt;MatProgressSpinnerModule  -->
<g id="edge28" class="edge">
<title>MaterialModule&#45;&gt;MatProgressSpinnerModule </title>
<path fill="none" stroke="#000000" stroke-dasharray="5,2" d="M3259.2665,-122C3106.3171,-122 2679.5593,-122 2679.5593,-122 2679.5593,-122 2679.5593,-148.9909 2679.5593,-148.9909"/>
<polygon fill="#000000" stroke="#000000" points="2676.0594,-148.9909 2679.5593,-158.9909 2683.0594,-148.991 2676.0594,-148.9909"/>
</g>
<!-- MaterialModule&#45;&gt;MatProgressSpinnerModule  -->
<g id="edge51" class="edge">
<title>MaterialModule&#45;&gt;MatProgressSpinnerModule </title>
<path fill="none" stroke="#000000" stroke-dasharray="5,2" d="M3259.5195,-120C3097.0734,-120 2620.4407,-120 2620.4407,-120 2620.4407,-120 2620.4407,-148.9648 2620.4407,-148.9648"/>
<polygon fill="#000000" stroke="#000000" points="2616.9408,-148.9648 2620.4407,-158.9648 2623.9408,-148.9649 2616.9408,-148.9648"/>
</g>
<!-- MaterialModule&#45;&gt;MatRadioModule  -->
<g id="edge29" class="edge">
<title>MaterialModule&#45;&gt;MatRadioModule </title>
<path fill="none" stroke="#000000" stroke-dasharray="5,2" d="M3259.2457,-118C3075.5437,-118 2484,-118 2484,-118 2484,-118 2484,-148.9775 2484,-148.9775"/>
<polygon fill="#000000" stroke="#000000" points="2480.5001,-148.9774 2484,-158.9775 2487.5001,-148.9775 2480.5001,-148.9774"/>
</g>
<!-- MaterialModule&#45;&gt;MatRippleModule  -->
<g id="edge30" class="edge">
<title>MaterialModule&#45;&gt;MatRippleModule </title>
<path fill="none" stroke="#000000" stroke-dasharray="5,2" d="M3259.2301,-116C3055.8365,-116 2345,-116 2345,-116 2345,-116 2345,-148.698 2345,-148.698"/>
<polygon fill="#000000" stroke="#000000" points="2341.5001,-148.698 2345,-158.698 2348.5001,-148.698 2341.5001,-148.698"/>
</g>
<!-- MaterialModule&#45;&gt;MatSelectModule  -->
<g id="edge31" class="edge">
<title>MaterialModule&#45;&gt;MatSelectModule </title>
<path fill="none" stroke="#000000" stroke-dasharray="5,2" d="M3259.4022,-112C3035.4378,-112 2186.0321,-112 2186.0321,-112 2186.0321,-112 2186.0321,-148.8939 2186.0321,-148.8939"/>
<polygon fill="#000000" stroke="#000000" points="2182.5322,-148.8938 2186.0321,-158.8939 2189.5322,-148.8939 2182.5322,-148.8938"/>
</g>
<!-- MaterialModule&#45;&gt;MatSelectModule  -->
<g id="edge55" class="edge">
<title>MaterialModule&#45;&gt;MatSelectModule </title>
<path fill="none" stroke="#000000" stroke-dasharray="5,2" d="M3259.4647,-114C3040.6721,-114 2225.9679,-114 2225.9679,-114 2225.9679,-114 2225.9679,-148.7778 2225.9679,-148.7778"/>
<polygon fill="#000000" stroke="#000000" points="2222.468,-148.7778 2225.9679,-158.7778 2229.468,-148.7778 2222.468,-148.7778"/>
</g>
<!-- MaterialModule&#45;&gt;MatSidenavModule  -->
<g id="edge32" class="edge">
<title>MaterialModule&#45;&gt;MatSidenavModule </title>
<path fill="none" stroke="#000000" stroke-dasharray="5,2" d="M3259.2891,-110C3020.0313,-110 2063,-110 2063,-110 2063,-110 2063,-148.692 2063,-148.692"/>
<polygon fill="#000000" stroke="#000000" points="2059.5001,-148.6919 2063,-158.692 2066.5001,-148.692 2059.5001,-148.6919"/>
</g>
<!-- MaterialModule&#45;&gt;MatSliderModule  -->
<g id="edge33" class="edge">
<title>MaterialModule&#45;&gt;MatSliderModule </title>
<path fill="none" stroke="#000000" stroke-dasharray="5,2" d="M3259.2463,-108C3003.245,-108 1920,-108 1920,-108 1920,-108 1920,-148.8711 1920,-148.8711"/>
<polygon fill="#000000" stroke="#000000" points="1916.5001,-148.871 1920,-158.8711 1923.5001,-148.8711 1916.5001,-148.871"/>
</g>
<!-- MaterialModule&#45;&gt;MatSlideToggleModule  -->
<g id="edge34" class="edge">
<title>MaterialModule&#45;&gt;MatSlideToggleModule </title>
<path fill="none" stroke="#000000" stroke-dasharray="5,2" d="M3259.2667,-106C2988.9518,-106 1790.6726,-106 1790.6726,-106 1790.6726,-106 1790.6726,-148.7157 1790.6726,-148.7157"/>
<polygon fill="#000000" stroke="#000000" points="1787.1727,-148.7157 1790.6726,-158.7157 1794.1727,-148.7158 1787.1727,-148.7157"/>
</g>
<!-- MaterialModule&#45;&gt;MatSlideToggleModule  -->
<g id="edge54" class="edge">
<title>MaterialModule&#45;&gt;MatSlideToggleModule </title>
<path fill="none" stroke="#000000" stroke-dasharray="5,2" d="M3259.2859,-104C2983.4821,-104 1739.3274,-104 1739.3274,-104 1739.3274,-104 1739.3274,-148.9551 1739.3274,-148.9551"/>
<polygon fill="#000000" stroke="#000000" points="1735.8275,-148.955 1739.3274,-158.9551 1742.8275,-148.9551 1735.8275,-148.955"/>
</g>
<!-- MaterialModule&#45;&gt;MatSnackBarModule  -->
<g id="edge35" class="edge">
<title>MaterialModule&#45;&gt;MatSnackBarModule </title>
<path fill="none" stroke="#000000" stroke-dasharray="5,2" d="M3259.3805,-102C2969.2229,-102 1600,-102 1600,-102 1600,-102 1600,-148.8446 1600,-148.8446"/>
<polygon fill="#000000" stroke="#000000" points="1596.5001,-148.8446 1600,-158.8446 1603.5001,-148.8446 1596.5001,-148.8446"/>
</g>
<!-- MaterialModule&#45;&gt;MatSortModule  -->
<g id="edge36" class="edge">
<title>MaterialModule&#45;&gt;MatSortModule </title>
<path fill="none" stroke="#000000" stroke-dasharray="5,2" d="M3259.484,-100C2955.3373,-100 1458,-100 1458,-100 1458,-100 1458,-148.7521 1458,-148.7521"/>
<polygon fill="#000000" stroke="#000000" points="1454.5001,-148.752 1458,-158.7521 1461.5001,-148.7521 1454.5001,-148.752"/>
</g>
<!-- MaterialModule&#45;&gt;MatTableModule  -->
<g id="edge37" class="edge">
<title>MaterialModule&#45;&gt;MatTableModule </title>
<path fill="none" stroke="#000000" stroke-dasharray="5,2" d="M3259.3556,-96C2940.4121,-96 1307.4213,-96 1307.4213,-96 1307.4213,-96 1307.4213,-148.6198 1307.4213,-148.6198"/>
<polygon fill="#000000" stroke="#000000" points="1303.9214,-148.6198 1307.4213,-158.6198 1310.9214,-148.6199 1303.9214,-148.6198"/>
</g>
<!-- MaterialModule&#45;&gt;MatTableModule  -->
<g id="edge49" class="edge">
<title>MaterialModule&#45;&gt;MatTableModule </title>
<path fill="none" stroke="#000000" stroke-dasharray="5,2" d="M3259.3831,-98C2944.2229,-98 1346.5787,-98 1346.5787,-98 1346.5787,-98 1346.5787,-148.6772 1346.5787,-148.6772"/>
<polygon fill="#000000" stroke="#000000" points="1343.0788,-148.6772 1346.5787,-158.6772 1350.0788,-148.6773 1343.0788,-148.6772"/>
</g>
<!-- MaterialModule&#45;&gt;MatTabsModule  -->
<g id="edge38" class="edge">
<title>MaterialModule&#45;&gt;MatTabsModule </title>
<path fill="none" stroke="#000000" stroke-dasharray="5,2" d="M3302.3029,-130.1025C3302.3029,-141.0859 3302.3029,-153 3302.3029,-153 3302.3029,-153 1194,-153 1194,-153 1194,-153 1194,-153.581 1194,-153.581"/>
<polygon fill="#000000" stroke="#000000" points="1190.5002,-148.8097 1194,-158.8097 1197.5002,-148.8098 1190.5002,-148.8097"/>
</g>
<!-- MaterialModule&#45;&gt;MatToolbarModule  -->
<g id="edge39" class="edge">
<title>MaterialModule&#45;&gt;MatToolbarModule </title>
<path fill="none" stroke="#000000" stroke-dasharray="5,2" d="M3288.0402,-130.1944C3288.0402,-138.2782 3288.0402,-146 3288.0402,-146 3288.0402,-146 1033.347,-146 1033.347,-146 1033.347,-146 1033.347,-148.9672 1033.347,-148.9672"/>
<polygon fill="#000000" stroke="#000000" points="1029.8471,-148.9671 1033.347,-158.9672 1036.8471,-148.9672 1029.8471,-148.9671"/>
</g>
<!-- MaterialModule&#45;&gt;MatToolbarModule  -->
<g id="edge45" class="edge">
<title>MaterialModule&#45;&gt;MatToolbarModule </title>
<path fill="none" stroke="#000000" stroke-dasharray="5,2" d="M3295.1716,-130.4218C3295.1716,-139.2791 3295.1716,-148 3295.1716,-148 3295.1716,-148 1076.653,-148 1076.653,-148 1076.653,-148 1076.653,-149.0799 1076.653,-149.0799"/>
<polygon fill="#000000" stroke="#000000" points="1073.1531,-148.7985 1076.653,-158.7985 1080.1531,-148.7986 1073.1531,-148.7985"/>
</g>
<!-- MaterialModule&#45;&gt;MatTooltipModule  -->
<g id="edge40" class="edge">
<title>MaterialModule&#45;&gt;MatTooltipModule </title>
<path fill="none" stroke="#000000" stroke-dasharray="5,2" d="M3280.9088,-130.1432C3280.9088,-136.4611 3280.9088,-142 3280.9088,-142 3280.9088,-142 909,-142 909,-142 909,-142 909,-148.68 909,-148.68"/>
<polygon fill="#000000" stroke="#000000" points="905.5001,-148.6799 909,-158.68 912.5001,-148.68 905.5001,-148.6799"/>
</g>
<!-- MaterialModule&#45;&gt;MatTreeModule  -->
<g id="edge41" class="edge">
<title>MaterialModule&#45;&gt;MatTreeModule </title>
<path fill="none" stroke="#000000" stroke-dasharray="5,2" d="M3273.7774,-130.1686C3273.7774,-134.0459 3273.7774,-137 3273.7774,-137 3273.7774,-137 772,-137 772,-137 772,-137 772,-148.8726 772,-148.8726"/>
<polygon fill="#000000" stroke="#000000" points="768.5001,-148.8725 772,-158.8726 775.5001,-148.8726 768.5001,-148.8725"/>
</g>
<!-- MaterialModule&#45;&gt;PortalModule  -->
<g id="edge42" class="edge">
<title>MaterialModule&#45;&gt;PortalModule </title>
<path fill="none" stroke="#000000" stroke-dasharray="5,2" d="M3266.6461,-130.1223C3266.6461,-132.9729 3266.6461,-135 3266.6461,-135 3266.6461,-135 650,-135 650,-135 650,-135 650,-148.9445 650,-148.9445"/>
<polygon fill="#000000" stroke="#000000" points="646.5001,-148.9444 650,-158.9445 653.5001,-148.9445 646.5001,-148.9444"/>
</g>
<!-- MaterialModule&#45;&gt;ScrollingModule  -->
<g id="edge43" class="edge">
<title>MaterialModule&#45;&gt;ScrollingModule </title>
<path fill="none" stroke="#000000" stroke-dasharray="5,2" d="M3270.2118,-93.92C3270.2118,-92.1536 3270.2118,-91 3270.2118,-91 3270.2118,-91 527,-91 527,-91 527,-91 527,-148.7616 527,-148.7616"/>
<polygon fill="#000000" stroke="#000000" points="523.5001,-148.7616 527,-158.7616 530.5001,-148.7616 523.5001,-148.7616"/>
</g>
<!-- MaterialModule&#45;&gt;MatFormFieldModule  -->
<g id="edge44" class="edge">
<title>MaterialModule&#45;&gt;MatFormFieldModule </title>
<path fill="none" stroke="#000000" stroke-dasharray="5,2" d="M3280.9088,-93.793C3280.9088,-88.4451 3280.9088,-84 3280.9088,-84 3280.9088,-84 379,-84 379,-84 379,-84 379,-148.6262 379,-148.6262"/>
<polygon fill="#000000" stroke="#000000" points="375.5001,-148.6262 379,-158.6262 382.5001,-148.6262 375.5001,-148.6262"/>
</g>
<!-- MaterialModule&#45;&gt;FormsModule  -->
<g id="edge56" class="edge">
<title>MaterialModule&#45;&gt;FormsModule </title>
<path fill="none" stroke="#000000" stroke-dasharray="5,2" d="M3291.6059,-93.5782C3291.6059,-84.7209 3291.6059,-76 3291.6059,-76 3291.6059,-76 239,-76 239,-76 239,-76 239,-148.9432 239,-148.9432"/>
<polygon fill="#000000" stroke="#000000" points="235.5001,-148.9432 239,-158.9432 242.5001,-148.9433 235.5001,-148.9432"/>
</g>
<!-- MaterialModule&#45;&gt;ReactiveFormsModule  -->
<g id="edge57" class="edge">
<title>MaterialModule&#45;&gt;ReactiveFormsModule </title>
<path fill="none" stroke="#000000" stroke-dasharray="5,2" d="M3302.3029,-93.5146C3302.3029,-81.8601 3302.3029,-69 3302.3029,-69 3302.3029,-69 98,-69 98,-69 98,-69 98,-148.6793 98,-148.6793"/>
<polygon fill="#000000" stroke="#000000" points="94.5001,-148.6792 98,-158.6793 101.5001,-148.6793 94.5001,-148.6792"/>
</g>
</g>
</svg>
