<?xml version="1.0" encoding="UTF-8" standalone="no"?>
<!DOCTYPE svg PUBLIC "-//W3C//DTD SVG 1.1//EN"
 "http://www.w3.org/Graphics/SVG/1.1/DTD/svg11.dtd">
<!-- Generated by graphviz version 2.40.1 (20161225.0304)
 -->
<!-- Title: dependencies Pages: 1 -->
<svg width="504pt" height="211pt"
 viewBox="0.00 0.00 504.00 211.00" xmlns="http://www.w3.org/2000/svg" xmlns:xlink="http://www.w3.org/1999/xlink">
<g id="graph0" class="graph" transform="scale(1 1) rotate(0) translate(4 207)">
<title>dependencies</title>
<polygon fill="#ffffff" stroke="transparent" points="-4,4 -4,-207 500,-207 500,4 -4,4"/>
<text text-anchor="start" x="227.0091" y="-42.4" font-family="sans-serif" font-weight="bold" font-size="14.00" fill="#000000">Legend</text>
<polygon fill="#ffffb3" stroke="transparent" points="14,-10 14,-30 34,-30 34,-10 14,-10"/>
<text text-anchor="start" x="37.629" y="-15.4" font-family="sans-serif" font-size="14.00" fill="#000000"> &#160;Declarations</text>
<polygon fill="#8dd3c7" stroke="transparent" points="127,-10 127,-30 147,-30 147,-10 127,-10"/>
<text text-anchor="start" x="150.7251" y="-15.4" font-family="sans-serif" font-size="14.00" fill="#000000"> &#160;Module</text>
<polygon fill="#80b1d3" stroke="transparent" points="213,-10 213,-30 233,-30 233,-10 213,-10"/>
<text text-anchor="start" x="236.7812" y="-15.4" font-family="sans-serif" font-size="14.00" fill="#000000"> &#160;Bootstrap</text>
<polygon fill="#fdb462" stroke="transparent" points="310,-10 310,-30 330,-30 330,-10 310,-10"/>
<text text-anchor="start" x="333.6732" y="-15.4" font-family="sans-serif" font-size="14.00" fill="#000000"> &#160;Providers</text>
<polygon fill="#fb8072" stroke="transparent" points="406,-10 406,-30 426,-30 426,-10 406,-10"/>
<text text-anchor="start" x="429.7258" y="-15.4" font-family="sans-serif" font-size="14.00" fill="#000000"> &#160;Exports</text>
<g id="clust1" class="cluster">
<title>cluster_LoginModule</title>
<polygon fill="none" stroke="#000000" stroke-dasharray="1,5" points="31.5,-70 31.5,-195 464.5,-195 464.5,-70 31.5,-70"/>
</g>
<g id="clust2" class="cluster">
<title>cluster_LoginModule_declarations</title>
<polygon fill="none" stroke="#000000" points="326.5,-78 326.5,-130 456.5,-130 456.5,-78 326.5,-78"/>
</g>
<g id="clust4" class="cluster">
<title>cluster_LoginModule_imports</title>
<polygon fill="none" stroke="#000000" points="39.5,-78 39.5,-130 318.5,-130 318.5,-78 39.5,-78"/>
</g>
<!-- LoginComponent -->
<g id="node1" class="node">
<title>LoginComponent</title>
<polygon fill="#ffffb3" stroke="#000000" points="448.7758,-122 334.2242,-122 334.2242,-86 448.7758,-86 448.7758,-122"/>
<text text-anchor="middle" x="391.5" y="-99.8" font-family="Times,serif" font-size="14.00" fill="#000000">LoginComponent</text>
</g>
<!-- LoginModule -->
<g id="node2" class="node">
<title>LoginModule</title>
<polygon fill="#8dd3c7" stroke="#000000" points="287.993,-187 284.993,-191 263.993,-191 260.993,-187 195.007,-187 195.007,-151 287.993,-151 287.993,-187"/>
<text text-anchor="middle" x="241.5" y="-164.8" font-family="Times,serif" font-size="14.00" fill="#000000">LoginModule</text>
</g>
<!-- LoginComponent&#45;&gt;LoginModule -->
<g id="edge1" class="edge">
<title>LoginComponent&#45;&gt;LoginModule</title>
<path fill="none" stroke="#000000" d="M391.5,-122.1061C391.5,-141.3391 391.5,-169 391.5,-169 391.5,-169 298.1387,-169 298.1387,-169"/>
<polygon fill="#000000" stroke="#000000" points="298.1387,-165.5001 288.1387,-169 298.1387,-172.5001 298.1387,-165.5001"/>
</g>
<!-- LoginRoutingModule -->
<g id="node3" class="node">
<title>LoginRoutingModule</title>
<polygon fill="#8dd3c7" stroke="#000000" points="310.6108,-122 307.6108,-126 286.6108,-126 283.6108,-122 172.3892,-122 172.3892,-86 310.6108,-86 310.6108,-122"/>
<text text-anchor="middle" x="241.5" y="-99.8" font-family="Times,serif" font-size="14.00" fill="#000000">LoginRoutingModule</text>
</g>
<!-- LoginRoutingModule&#45;&gt;LoginModule -->
<g id="edge2" class="edge">
<title>LoginRoutingModule&#45;&gt;LoginModule</title>
<path fill="none" stroke="#000000" d="M241.5,-122.1061C241.5,-122.1061 241.5,-140.991 241.5,-140.991"/>
<polygon fill="#000000" stroke="#000000" points="238.0001,-140.9909 241.5,-150.991 245.0001,-140.991 238.0001,-140.9909"/>
</g>
<!-- MaterialModule -->
<g id="node4" class="node">
<title>MaterialModule</title>
<polygon fill="#8dd3c7" stroke="#000000" points="153.9706,-122 150.9706,-126 129.9706,-126 126.9706,-122 47.0294,-122 47.0294,-86 153.9706,-86 153.9706,-122"/>
<text text-anchor="middle" x="100.5" y="-99.8" font-family="Times,serif" font-size="14.00" fill="#000000">MaterialModule</text>
</g>
<!-- MaterialModule&#45;&gt;LoginModule -->
<g id="edge3" class="edge">
<title>MaterialModule&#45;&gt;LoginModule</title>
<path fill="none" stroke="#000000" d="M100.5,-122.1061C100.5,-141.3391 100.5,-169 100.5,-169 100.5,-169 184.9406,-169 184.9406,-169"/>
<polygon fill="#000000" stroke="#000000" points="184.9406,-172.5001 194.9406,-169 184.9405,-165.5001 184.9406,-172.5001"/>
</g>
</g>
</svg>
