<?xml version="1.0" encoding="UTF-8" standalone="no"?>
<!DOCTYPE svg PUBLIC "-//W3C//DTD SVG 1.1//EN"
 "http://www.w3.org/Graphics/SVG/1.1/DTD/svg11.dtd">
<!-- Generated by graphviz version 2.40.1 (20161225.0304)
 -->
<!-- Title: dependencies Pages: 1 -->
<svg width="1309pt" height="211pt"
 viewBox="0.00 0.00 1309.00 211.00" xmlns="http://www.w3.org/2000/svg" xmlns:xlink="http://www.w3.org/1999/xlink">
<g id="graph0" class="graph" transform="scale(1 1) rotate(0) translate(4 207)">
<title>dependencies</title>
<polygon fill="#ffffff" stroke="transparent" points="-4,4 -4,-207 1305,-207 1305,4 -4,4"/>
<text text-anchor="start" x="629.5091" y="-42.4" font-family="sans-serif" font-weight="bold" font-size="14.00" fill="#000000">Legend</text>
<polygon fill="#ffffb3" stroke="transparent" points="416.5,-10 416.5,-30 436.5,-30 436.5,-10 416.5,-10"/>
<text text-anchor="start" x="440.129" y="-15.4" font-family="sans-serif" font-size="14.00" fill="#000000"> &#160;Declarations</text>
<polygon fill="#8dd3c7" stroke="transparent" points="529.5,-10 529.5,-30 549.5,-30 549.5,-10 529.5,-10"/>
<text text-anchor="start" x="553.2251" y="-15.4" font-family="sans-serif" font-size="14.00" fill="#000000"> &#160;Module</text>
<polygon fill="#80b1d3" stroke="transparent" points="615.5,-10 615.5,-30 635.5,-30 635.5,-10 615.5,-10"/>
<text text-anchor="start" x="639.2812" y="-15.4" font-family="sans-serif" font-size="14.00" fill="#000000"> &#160;Bootstrap</text>
<polygon fill="#fdb462" stroke="transparent" points="712.5,-10 712.5,-30 732.5,-30 732.5,-10 712.5,-10"/>
<text text-anchor="start" x="736.1732" y="-15.4" font-family="sans-serif" font-size="14.00" fill="#000000"> &#160;Providers</text>
<polygon fill="#fb8072" stroke="transparent" points="808.5,-10 808.5,-30 828.5,-30 828.5,-10 808.5,-10"/>
<text text-anchor="start" x="832.2258" y="-15.4" font-family="sans-serif" font-size="14.00" fill="#000000"> &#160;Exports</text>
<g id="clust1" class="cluster">
<title>cluster_DocumentsDashboardModule</title>
<polygon fill="none" stroke="#000000" stroke-dasharray="1,5" points="8,-70 8,-195 1293,-195 1293,-70 8,-70"/>
</g>
<g id="clust2" class="cluster">
<title>cluster_DocumentsDashboardModule_declarations</title>
<polygon fill="none" stroke="#000000" points="687,-78 687,-130 1285,-130 1285,-78 687,-78"/>
</g>
<g id="clust6" class="cluster">
<title>cluster_DocumentsDashboardModule_imports</title>
<polygon fill="none" stroke="#000000" points="16,-78 16,-130 679,-130 679,-78 16,-78"/>
</g>
<!-- DocumentsDashboardComponent -->
<g id="node1" class="node">
<title>DocumentsDashboardComponent</title>
<polygon fill="#ffffb3" stroke="#000000" points="1276.7352,-122 1071.2648,-122 1071.2648,-86 1276.7352,-86 1276.7352,-122"/>
<text text-anchor="middle" x="1174" y="-99.8" font-family="Times,serif" font-size="14.00" fill="#000000">DocumentsDashboardComponent</text>
</g>
<!-- DocumentsDashboardModule -->
<g id="node4" class="node">
<title>DocumentsDashboardModule</title>
<polygon fill="#8dd3c7" stroke="#000000" points="706.9524,-187 703.9524,-191 682.9524,-191 679.9524,-187 523.0476,-187 523.0476,-151 706.9524,-151 706.9524,-187"/>
<text text-anchor="middle" x="615" y="-164.8" font-family="Times,serif" font-size="14.00" fill="#000000">DocumentsDashboardModule</text>
</g>
<!-- DocumentsDashboardComponent&#45;&gt;DocumentsDashboardModule -->
<g id="edge1" class="edge">
<title>DocumentsDashboardComponent&#45;&gt;DocumentsDashboardModule</title>
<path fill="none" stroke="#000000" d="M1174,-122.2843C1174,-143.3211 1174,-175 1174,-175 1174,-175 716.9943,-175 716.9943,-175"/>
<polygon fill="#000000" stroke="#000000" points="716.9943,-171.5001 706.9943,-175 716.9943,-178.5001 716.9943,-171.5001"/>
</g>
<!-- DocTableComponent -->
<g id="node2" class="node">
<title>DocTableComponent</title>
<polygon fill="#ffffb3" stroke="#000000" points="1053.0268,-122 916.9732,-122 916.9732,-86 1053.0268,-86 1053.0268,-122"/>
<text text-anchor="middle" x="985" y="-99.8" font-family="Times,serif" font-size="14.00" fill="#000000">DocTableComponent</text>
</g>
<!-- DocTableComponent&#45;&gt;DocumentsDashboardModule -->
<g id="edge2" class="edge">
<title>DocTableComponent&#45;&gt;DocumentsDashboardModule</title>
<path fill="none" stroke="#000000" d="M985,-122.0225C985,-139.3734 985,-163 985,-163 985,-163 717.4122,-163 717.4122,-163"/>
<polygon fill="#000000" stroke="#000000" points="717.4122,-159.5001 707.4122,-163 717.4122,-166.5001 717.4122,-159.5001"/>
</g>
<!-- NewDocumentDialogComponent -->
<g id="node3" class="node">
<title>NewDocumentDialogComponent</title>
<polygon fill="#ffffb3" stroke="#000000" points="899.1797,-122 694.8203,-122 694.8203,-86 899.1797,-86 899.1797,-122"/>
<text text-anchor="middle" x="797" y="-99.8" font-family="Times,serif" font-size="14.00" fill="#000000">NewDocumentDialogComponent</text>
</g>
<!-- NewDocumentDialogComponent&#45;&gt;DocumentsDashboardModule -->
<g id="edge3" class="edge">
<title>NewDocumentDialogComponent&#45;&gt;DocumentsDashboardModule</title>
<path fill="none" stroke="#000000" d="M700.9432,-122.1061C700.9432,-122.1061 700.9432,-140.991 700.9432,-140.991"/>
<polygon fill="#000000" stroke="#000000" points="697.4433,-140.9909 700.9432,-150.991 704.4433,-140.991 697.4433,-140.9909"/>
</g>
<!-- CommonModule -->
<g id="node5" class="node">
<title>CommonModule</title>
<polygon fill="#8dd3c7" stroke="#000000" points="670.6681,-122 667.6681,-126 646.6681,-126 643.6681,-122 559.3319,-122 559.3319,-86 670.6681,-86 670.6681,-122"/>
<text text-anchor="middle" x="615" y="-99.8" font-family="Times,serif" font-size="14.00" fill="#000000">CommonModule</text>
</g>
<!-- CommonModule&#45;&gt;DocumentsDashboardModule -->
<g id="edge4" class="edge">
<title>CommonModule&#45;&gt;DocumentsDashboardModule</title>
<path fill="none" stroke="#000000" d="M615,-122.1061C615,-122.1061 615,-140.991 615,-140.991"/>
<polygon fill="#000000" stroke="#000000" points="611.5001,-140.9909 615,-150.991 618.5001,-140.991 611.5001,-140.9909"/>
</g>
<!-- MaterialModule -->
<g id="node6" class="node">
<title>MaterialModule</title>
<polygon fill="#8dd3c7" stroke="#000000" points="541.4706,-122 538.4706,-126 517.4706,-126 514.4706,-122 434.5294,-122 434.5294,-86 541.4706,-86 541.4706,-122"/>
<text text-anchor="middle" x="488" y="-99.8" font-family="Times,serif" font-size="14.00" fill="#000000">MaterialModule</text>
</g>
<!-- MaterialModule&#45;&gt;DocumentsDashboardModule -->
<g id="edge5" class="edge">
<title>MaterialModule&#45;&gt;DocumentsDashboardModule</title>
<path fill="none" stroke="#000000" d="M532.2546,-122.1061C532.2546,-122.1061 532.2546,-140.991 532.2546,-140.991"/>
<polygon fill="#000000" stroke="#000000" points="528.7546,-140.9909 532.2546,-150.991 535.7546,-140.991 528.7546,-140.9909"/>
</g>
<!-- ReactiveFormsModule -->
<g id="node7" class="node">
<title>ReactiveFormsModule</title>
<polygon fill="#8dd3c7" stroke="#000000" points="416.3047,-122 413.3047,-126 392.3047,-126 389.3047,-122 271.6953,-122 271.6953,-86 416.3047,-86 416.3047,-122"/>
<text text-anchor="middle" x="344" y="-99.8" font-family="Times,serif" font-size="14.00" fill="#000000">ReactiveFormsModule</text>
</g>
<!-- ReactiveFormsModule&#45;&gt;DocumentsDashboardModule -->
<g id="edge6" class="edge">
<title>ReactiveFormsModule&#45;&gt;DocumentsDashboardModule</title>
<path fill="none" stroke="#000000" d="M344,-122.0225C344,-139.3734 344,-163 344,-163 344,-163 512.8736,-163 512.8736,-163"/>
<polygon fill="#000000" stroke="#000000" points="512.8737,-166.5001 522.8736,-163 512.8736,-159.5001 512.8737,-166.5001"/>
</g>
<!-- DocumentsDashboardRoutingModule -->
<g id="node8" class="node">
<title>DocumentsDashboardRoutingModule</title>
<polygon fill="#8dd3c7" stroke="#000000" points="253.5702,-122 250.5702,-126 229.5702,-126 226.5702,-122 24.4298,-122 24.4298,-86 253.5702,-86 253.5702,-122"/>
<text text-anchor="middle" x="139" y="-99.8" font-family="Times,serif" font-size="14.00" fill="#000000">DocumentsDashboardRoutingModule</text>
</g>
<!-- DocumentsDashboardRoutingModule&#45;&gt;DocumentsDashboardModule -->
<g id="edge7" class="edge">
<title>DocumentsDashboardRoutingModule&#45;&gt;DocumentsDashboardModule</title>
<path fill="none" stroke="#000000" d="M139,-122.2843C139,-143.3211 139,-175 139,-175 139,-175 512.9404,-175 512.9404,-175"/>
<polygon fill="#000000" stroke="#000000" points="512.9404,-178.5001 522.9404,-175 512.9403,-171.5001 512.9404,-178.5001"/>
</g>
</g>
</svg>
