<?xml version="1.0" encoding="UTF-8" standalone="no"?>
<!DOCTYPE svg PUBLIC "-//W3C//DTD SVG 1.1//EN"
 "http://www.w3.org/Graphics/SVG/1.1/DTD/svg11.dtd">
<!-- Generated by graphviz version 2.40.1 (20161225.0304)
 -->
<!-- Title: dependencies Pages: 1 -->
<svg width="1016pt" height="211pt"
 viewBox="0.00 0.00 1016.00 211.00" xmlns="http://www.w3.org/2000/svg" xmlns:xlink="http://www.w3.org/1999/xlink">
<g id="graph0" class="graph" transform="scale(1 1) rotate(0) translate(4 207)">
<title>dependencies</title>
<polygon fill="#ffffff" stroke="transparent" points="-4,4 -4,-207 1012,-207 1012,4 -4,4"/>
<text text-anchor="start" x="483.0091" y="-42.4" font-family="sans-serif" font-weight="bold" font-size="14.00" fill="#000000">Legend</text>
<polygon fill="#ffffb3" stroke="transparent" points="270,-10 270,-30 290,-30 290,-10 270,-10"/>
<text text-anchor="start" x="293.629" y="-15.4" font-family="sans-serif" font-size="14.00" fill="#000000"> &#160;Declarations</text>
<polygon fill="#8dd3c7" stroke="transparent" points="383,-10 383,-30 403,-30 403,-10 383,-10"/>
<text text-anchor="start" x="406.7251" y="-15.4" font-family="sans-serif" font-size="14.00" fill="#000000"> &#160;Module</text>
<polygon fill="#80b1d3" stroke="transparent" points="469,-10 469,-30 489,-30 489,-10 469,-10"/>
<text text-anchor="start" x="492.7812" y="-15.4" font-family="sans-serif" font-size="14.00" fill="#000000"> &#160;Bootstrap</text>
<polygon fill="#fdb462" stroke="transparent" points="566,-10 566,-30 586,-30 586,-10 566,-10"/>
<text text-anchor="start" x="589.6732" y="-15.4" font-family="sans-serif" font-size="14.00" fill="#000000"> &#160;Providers</text>
<polygon fill="#fb8072" stroke="transparent" points="662,-10 662,-30 682,-30 682,-10 662,-10"/>
<text text-anchor="start" x="685.7258" y="-15.4" font-family="sans-serif" font-size="14.00" fill="#000000"> &#160;Exports</text>
<g id="clust1" class="cluster">
<title>cluster_DocumentsDashboardModule</title>
<polygon fill="none" stroke="#000000" stroke-dasharray="1,5" points="8,-70 8,-195 1000,-195 1000,-70 8,-70"/>
</g>
<g id="clust2" class="cluster">
<title>cluster_DocumentsDashboardModule_declarations</title>
<polygon fill="none" stroke="#000000" points="394,-78 394,-130 992,-130 992,-78 394,-78"/>
</g>
<g id="clust6" class="cluster">
<title>cluster_DocumentsDashboardModule_imports</title>
<polygon fill="none" stroke="#000000" points="16,-78 16,-130 386,-130 386,-78 16,-78"/>
</g>
<!-- DocTableComponent -->
<g id="node1" class="node">
<title>DocTableComponent</title>
<polygon fill="#ffffb3" stroke="#000000" points="984.0268,-122 847.9732,-122 847.9732,-86 984.0268,-86 984.0268,-122"/>
<text text-anchor="middle" x="916" y="-99.8" font-family="Times,serif" font-size="14.00" fill="#000000">DocTableComponent</text>
</g>
<!-- DocumentsDashboardModule -->
<g id="node4" class="node">
<title>DocumentsDashboardModule</title>
<polygon fill="#8dd3c7" stroke="#000000" points="595.9524,-187 592.9524,-191 571.9524,-191 568.9524,-187 412.0476,-187 412.0476,-151 595.9524,-151 595.9524,-187"/>
<text text-anchor="middle" x="504" y="-164.8" font-family="Times,serif" font-size="14.00" fill="#000000">DocumentsDashboardModule</text>
</g>
<!-- DocTableComponent&#45;&gt;DocumentsDashboardModule -->
<g id="edge1" class="edge">
<title>DocTableComponent&#45;&gt;DocumentsDashboardModule</title>
<path fill="none" stroke="#000000" d="M916,-122.2843C916,-143.3211 916,-175 916,-175 916,-175 606.2043,-175 606.2043,-175"/>
<polygon fill="#000000" stroke="#000000" points="606.2044,-171.5001 596.2043,-175 606.2043,-178.5001 606.2044,-171.5001"/>
</g>
<!-- DocumentsDashboardComponent -->
<g id="node2" class="node">
<title>DocumentsDashboardComponent</title>
<polygon fill="#ffffb3" stroke="#000000" points="829.7352,-122 624.2648,-122 624.2648,-86 829.7352,-86 829.7352,-122"/>
<text text-anchor="middle" x="727" y="-99.8" font-family="Times,serif" font-size="14.00" fill="#000000">DocumentsDashboardComponent</text>
</g>
<!-- DocumentsDashboardComponent&#45;&gt;DocumentsDashboardModule -->
<g id="edge2" class="edge">
<title>DocumentsDashboardComponent&#45;&gt;DocumentsDashboardModule</title>
<path fill="none" stroke="#000000" d="M727,-122.0225C727,-139.3734 727,-163 727,-163 727,-163 605.9901,-163 605.9901,-163"/>
<polygon fill="#000000" stroke="#000000" points="605.9901,-159.5001 595.9901,-163 605.9901,-166.5001 605.9901,-159.5001"/>
</g>
<!-- NewDocumentDialogComponent -->
<g id="node3" class="node">
<title>NewDocumentDialogComponent</title>
<polygon fill="#ffffb3" stroke="#000000" points="606.1797,-122 401.8203,-122 401.8203,-86 606.1797,-86 606.1797,-122"/>
<text text-anchor="middle" x="504" y="-99.8" font-family="Times,serif" font-size="14.00" fill="#000000">NewDocumentDialogComponent</text>
</g>
<!-- NewDocumentDialogComponent&#45;&gt;DocumentsDashboardModule -->
<g id="edge3" class="edge">
<title>NewDocumentDialogComponent&#45;&gt;DocumentsDashboardModule</title>
<path fill="none" stroke="#000000" d="M504,-122.1061C504,-122.1061 504,-140.991 504,-140.991"/>
<polygon fill="#000000" stroke="#000000" points="500.5001,-140.9909 504,-150.991 507.5001,-140.991 500.5001,-140.9909"/>
</g>
<!-- DocumentsDashboardRoutingModule -->
<g id="node5" class="node">
<title>DocumentsDashboardRoutingModule</title>
<polygon fill="#8dd3c7" stroke="#000000" points="377.5702,-122 374.5702,-126 353.5702,-126 350.5702,-122 148.4298,-122 148.4298,-86 377.5702,-86 377.5702,-122"/>
<text text-anchor="middle" x="263" y="-99.8" font-family="Times,serif" font-size="14.00" fill="#000000">DocumentsDashboardRoutingModule</text>
</g>
<!-- DocumentsDashboardRoutingModule&#45;&gt;DocumentsDashboardModule -->
<g id="edge4" class="edge">
<title>DocumentsDashboardRoutingModule&#45;&gt;DocumentsDashboardModule</title>
<path fill="none" stroke="#000000" d="M263,-122.0225C263,-139.3734 263,-163 263,-163 263,-163 401.8567,-163 401.8567,-163"/>
<polygon fill="#000000" stroke="#000000" points="401.8567,-166.5001 411.8567,-163 401.8566,-159.5001 401.8567,-166.5001"/>
</g>
<!-- MaterialModule -->
<g id="node6" class="node">
<title>MaterialModule</title>
<polygon fill="#8dd3c7" stroke="#000000" points="130.4706,-122 127.4706,-126 106.4706,-126 103.4706,-122 23.5294,-122 23.5294,-86 130.4706,-86 130.4706,-122"/>
<text text-anchor="middle" x="77" y="-99.8" font-family="Times,serif" font-size="14.00" fill="#000000">MaterialModule</text>
</g>
<!-- MaterialModule&#45;&gt;DocumentsDashboardModule -->
<g id="edge5" class="edge">
<title>MaterialModule&#45;&gt;DocumentsDashboardModule</title>
<path fill="none" stroke="#000000" d="M77,-122.2843C77,-143.3211 77,-175 77,-175 77,-175 401.8731,-175 401.8731,-175"/>
<polygon fill="#000000" stroke="#000000" points="401.8731,-178.5001 411.8731,-175 401.873,-171.5001 401.8731,-178.5001"/>
</g>
</g>
</svg>
