<?xml version="1.0" encoding="UTF-8" standalone="no"?>
<!DOCTYPE svg PUBLIC "-//W3C//DTD SVG 1.1//EN"
 "http://www.w3.org/Graphics/SVG/1.1/DTD/svg11.dtd">
<!-- Generated by graphviz version 2.40.1 (20161225.0304)
 -->
<!-- Title: dependencies Pages: 1 -->
<svg width="2731pt" height="284pt"
 viewBox="0.00 0.00 2731.00 284.00" xmlns="http://www.w3.org/2000/svg" xmlns:xlink="http://www.w3.org/1999/xlink">
<g id="graph0" class="graph" transform="scale(1 1) rotate(0) translate(4 280)">
<title>dependencies</title>
<polygon fill="#ffffff" stroke="transparent" points="-4,4 -4,-280 2727,-280 2727,4 -4,4"/>
<text text-anchor="start" x="1340.5091" y="-42.4" font-family="sans-serif" font-weight="bold" font-size="14.00" fill="#000000">Legend</text>
<polygon fill="#ffffb3" stroke="transparent" points="1127.5,-10 1127.5,-30 1147.5,-30 1147.5,-10 1127.5,-10"/>
<text text-anchor="start" x="1151.129" y="-15.4" font-family="sans-serif" font-size="14.00" fill="#000000"> &#160;Declarations</text>
<polygon fill="#8dd3c7" stroke="transparent" points="1240.5,-10 1240.5,-30 1260.5,-30 1260.5,-10 1240.5,-10"/>
<text text-anchor="start" x="1264.2251" y="-15.4" font-family="sans-serif" font-size="14.00" fill="#000000"> &#160;Module</text>
<polygon fill="#80b1d3" stroke="transparent" points="1326.5,-10 1326.5,-30 1346.5,-30 1346.5,-10 1326.5,-10"/>
<text text-anchor="start" x="1350.2812" y="-15.4" font-family="sans-serif" font-size="14.00" fill="#000000"> &#160;Bootstrap</text>
<polygon fill="#fdb462" stroke="transparent" points="1423.5,-10 1423.5,-30 1443.5,-30 1443.5,-10 1423.5,-10"/>
<text text-anchor="start" x="1447.1732" y="-15.4" font-family="sans-serif" font-size="14.00" fill="#000000"> &#160;Providers</text>
<polygon fill="#fb8072" stroke="transparent" points="1519.5,-10 1519.5,-30 1539.5,-30 1539.5,-10 1519.5,-10"/>
<text text-anchor="start" x="1543.2258" y="-15.4" font-family="sans-serif" font-size="14.00" fill="#000000"> &#160;Exports</text>
<g id="clust1" class="cluster">
<title>cluster_AppModule</title>
<polygon fill="none" stroke="#000000" stroke-dasharray="1,5" points="8,-70 8,-268 2715,-268 2715,-70 8,-70"/>
</g>
<g id="clust2" class="cluster">
<title>cluster_AppModule_declarations</title>
<polygon fill="none" stroke="#000000" points="2585,-78 2585,-130 2707,-130 2707,-78 2585,-78"/>
</g>
<g id="clust4" class="cluster">
<title>cluster_AppModule_imports</title>
<polygon fill="none" stroke="#000000" points="1730,-78 1730,-130 2577,-130 2577,-78 1730,-78"/>
</g>
<g id="clust6" class="cluster">
<title>cluster_AppModule_bootstrap</title>
<polygon fill="none" stroke="#000000" points="1802,-208 1802,-260 1926,-260 1926,-208 1802,-208"/>
</g>
<g id="clust7" class="cluster">
<title>cluster_AppModule_providers</title>
<polygon fill="none" stroke="#000000" points="16,-78 16,-130 1722,-130 1722,-78 16,-78"/>
</g>
<!-- AppComponent -->
<g id="node1" class="node">
<title>AppComponent</title>
<polygon fill="#ffffb3" stroke="#000000" points="2698.9399,-122 2593.0601,-122 2593.0601,-86 2698.9399,-86 2698.9399,-122"/>
<text text-anchor="middle" x="2646" y="-99.8" font-family="Times,serif" font-size="14.00" fill="#000000">AppComponent</text>
</g>
<!-- AppModule -->
<g id="node2" class="node">
<title>AppModule</title>
<polygon fill="#8dd3c7" stroke="#000000" points="1905.6571,-187 1902.6571,-191 1881.6571,-191 1878.6571,-187 1822.3429,-187 1822.3429,-151 1905.6571,-151 1905.6571,-187"/>
<text text-anchor="middle" x="1864" y="-164.8" font-family="Times,serif" font-size="14.00" fill="#000000">AppModule</text>
</g>
<!-- AppComponent&#45;&gt;AppModule -->
<g id="edge1" class="edge">
<title>AppComponent&#45;&gt;AppModule</title>
<path fill="none" stroke="#000000" d="M2646,-122.2479C2646,-145.0179 2646,-181 2646,-181 2646,-181 1915.7673,-181 1915.7673,-181"/>
<polygon fill="#000000" stroke="#000000" points="1915.7673,-177.5001 1905.7673,-181 1915.7672,-184.5001 1915.7673,-177.5001"/>
</g>
<!-- AppComponent  -->
<g id="node9" class="node">
<title>AppComponent </title>
<polygon fill="#80b1d3" stroke="#000000" points="1918.439,-252 1809.561,-252 1809.561,-216 1918.439,-216 1918.439,-252"/>
<text text-anchor="middle" x="1864" y="-229.8" font-family="Times,serif" font-size="14.00" fill="#000000">AppComponent </text>
</g>
<!-- AppModule&#45;&gt;AppComponent  -->
<g id="edge8" class="edge">
<title>AppModule&#45;&gt;AppComponent </title>
<path fill="none" stroke="#000000" stroke-dasharray="1,5" d="M1864,-187.1061C1864,-187.1061 1864,-205.991 1864,-205.991"/>
<polygon fill="#000000" stroke="#000000" points="1860.5001,-205.9909 1864,-215.991 1867.5001,-205.991 1860.5001,-205.9909"/>
</g>
<!-- BrowserModule -->
<g id="node3" class="node">
<title>BrowserModule</title>
<polygon fill="#8dd3c7" stroke="#000000" points="2569.4734,-122 2566.4734,-126 2545.4734,-126 2542.4734,-122 2462.5266,-122 2462.5266,-86 2569.4734,-86 2569.4734,-122"/>
<text text-anchor="middle" x="2516" y="-99.8" font-family="Times,serif" font-size="14.00" fill="#000000">BrowserModule</text>
</g>
<!-- BrowserModule&#45;&gt;AppModule -->
<g id="edge2" class="edge">
<title>BrowserModule&#45;&gt;AppModule</title>
<path fill="none" stroke="#000000" d="M2516,-122.2843C2516,-143.3211 2516,-175 2516,-175 2516,-175 1915.7774,-175 1915.7774,-175"/>
<polygon fill="#000000" stroke="#000000" points="1915.7774,-171.5001 1905.7774,-175 1915.7773,-178.5001 1915.7774,-171.5001"/>
</g>
<!-- AppRoutingModule -->
<g id="node4" class="node">
<title>AppRoutingModule</title>
<polygon fill="#8dd3c7" stroke="#000000" points="2444.2744,-122 2441.2744,-126 2420.2744,-126 2417.2744,-122 2315.7256,-122 2315.7256,-86 2444.2744,-86 2444.2744,-122"/>
<text text-anchor="middle" x="2380" y="-99.8" font-family="Times,serif" font-size="14.00" fill="#000000">AppRoutingModule</text>
</g>
<!-- AppRoutingModule&#45;&gt;AppModule -->
<g id="edge3" class="edge">
<title>AppRoutingModule&#45;&gt;AppModule</title>
<path fill="none" stroke="#000000" d="M2380,-122.1061C2380,-141.3391 2380,-169 2380,-169 2380,-169 1915.7894,-169 1915.7894,-169"/>
<polygon fill="#000000" stroke="#000000" points="1915.7894,-165.5001 1905.7894,-169 1915.7893,-172.5001 1915.7894,-165.5001"/>
</g>
<!-- BrowserAnimationsModule -->
<g id="node5" class="node">
<title>BrowserAnimationsModule</title>
<polygon fill="#8dd3c7" stroke="#000000" points="2297.3019,-122 2294.3019,-126 2273.3019,-126 2270.3019,-122 2124.6981,-122 2124.6981,-86 2297.3019,-86 2297.3019,-122"/>
<text text-anchor="middle" x="2211" y="-99.8" font-family="Times,serif" font-size="14.00" fill="#000000">BrowserAnimationsModule</text>
</g>
<!-- BrowserAnimationsModule&#45;&gt;AppModule -->
<g id="edge4" class="edge">
<title>BrowserAnimationsModule&#45;&gt;AppModule</title>
<path fill="none" stroke="#000000" d="M2211,-122.0225C2211,-139.3734 2211,-163 2211,-163 2211,-163 1915.8563,-163 1915.8563,-163"/>
<polygon fill="#000000" stroke="#000000" points="1915.8563,-159.5001 1905.8563,-163 1915.8563,-166.5001 1915.8563,-159.5001"/>
</g>
<!-- HttpClientModule -->
<g id="node6" class="node">
<title>HttpClientModule</title>
<polygon fill="#8dd3c7" stroke="#000000" points="2107.1611,-122 2104.1611,-126 2083.1611,-126 2080.1611,-122 1988.8389,-122 1988.8389,-86 2107.1611,-86 2107.1611,-122"/>
<text text-anchor="middle" x="2048" y="-99.8" font-family="Times,serif" font-size="14.00" fill="#000000">HttpClientModule</text>
</g>
<!-- HttpClientModule&#45;&gt;AppModule -->
<g id="edge5" class="edge">
<title>HttpClientModule&#45;&gt;AppModule</title>
<path fill="none" stroke="#000000" d="M2048,-122.2396C2048,-137.5706 2048,-157 2048,-157 2048,-157 1915.7524,-157 1915.7524,-157"/>
<polygon fill="#000000" stroke="#000000" points="1915.7525,-153.5001 1905.7524,-157 1915.7524,-160.5001 1915.7525,-153.5001"/>
</g>
<!-- CoreModule -->
<g id="node7" class="node">
<title>CoreModule</title>
<polygon fill="#8dd3c7" stroke="#000000" points="1970.2619,-122 1967.2619,-126 1946.2619,-126 1943.2619,-122 1883.7381,-122 1883.7381,-86 1970.2619,-86 1970.2619,-122"/>
<text text-anchor="middle" x="1927" y="-99.8" font-family="Times,serif" font-size="14.00" fill="#000000">CoreModule</text>
</g>
<!-- CoreModule&#45;&gt;AppModule -->
<g id="edge6" class="edge">
<title>CoreModule&#45;&gt;AppModule</title>
<path fill="none" stroke="#000000" d="M1894.7237,-122.1061C1894.7237,-122.1061 1894.7237,-140.991 1894.7237,-140.991"/>
<polygon fill="#000000" stroke="#000000" points="1891.2238,-140.9909 1894.7237,-150.991 1898.2238,-140.991 1891.2238,-140.9909"/>
</g>
<!-- SocialLoginModule -->
<g id="node8" class="node">
<title>SocialLoginModule</title>
<polygon fill="#8dd3c7" stroke="#000000" points="1865.986,-122 1862.986,-126 1841.986,-126 1838.986,-122 1738.014,-122 1738.014,-86 1865.986,-86 1865.986,-122"/>
<text text-anchor="middle" x="1802" y="-99.8" font-family="Times,serif" font-size="14.00" fill="#000000">SocialLoginModule</text>
</g>
<!-- SocialLoginModule&#45;&gt;AppModule -->
<g id="edge7" class="edge">
<title>SocialLoginModule&#45;&gt;AppModule</title>
<path fill="none" stroke="#000000" d="M1844.0824,-122.1061C1844.0824,-122.1061 1844.0824,-140.991 1844.0824,-140.991"/>
<polygon fill="#000000" stroke="#000000" points="1840.5825,-140.9909 1844.0824,-150.991 1847.5825,-140.991 1840.5825,-140.9909"/>
</g>
<!-- { provide: MAT_SNACK_BAR_DEFAULT_OPTIONS, useValue: &#160;} -->
<g id="node10" class="node">
<title>{ provide: MAT_SNACK_BAR_DEFAULT_OPTIONS, useValue: &#160;}</title>
<ellipse fill="#fdb462" stroke="#000000" cx="1430" cy="-104" rx="283.8467" ry="18"/>
<text text-anchor="middle" x="1430" y="-99.8" font-family="Times,serif" font-size="14.00" fill="#000000">{ provide: MAT_SNACK_BAR_DEFAULT_OPTIONS, useValue: &#160;}</text>
</g>
<!-- { provide: MAT_SNACK_BAR_DEFAULT_OPTIONS, useValue: &#160;}&#45;&gt;AppModule -->
<g id="edge9" class="edge">
<title>{ provide: MAT_SNACK_BAR_DEFAULT_OPTIONS, useValue: &#160;}&#45;&gt;AppModule</title>
<path fill="none" stroke="#000000" d="M1430,-122.2396C1430,-137.5706 1430,-157 1430,-157 1430,-157 1811.9919,-157 1811.9919,-157"/>
<polygon fill="#000000" stroke="#000000" points="1811.9919,-160.5001 1821.9919,-157 1811.9919,-153.5001 1811.9919,-160.5001"/>
</g>
<!-- DatePipe -->
<g id="node11" class="node">
<title>DatePipe</title>
<ellipse fill="#fdb462" stroke="#000000" cx="1082" cy="-104" rx="46.3643" ry="18"/>
<text text-anchor="middle" x="1082" y="-99.8" font-family="Times,serif" font-size="14.00" fill="#000000">DatePipe</text>
</g>
<!-- DatePipe&#45;&gt;AppModule -->
<g id="edge10" class="edge">
<title>DatePipe&#45;&gt;AppModule</title>
<path fill="none" stroke="#000000" d="M1082,-122.0225C1082,-139.3734 1082,-163 1082,-163 1082,-163 1812.2327,-163 1812.2327,-163"/>
<polygon fill="#000000" stroke="#000000" points="1812.2328,-166.5001 1822.2327,-163 1812.2327,-159.5001 1812.2328,-166.5001"/>
</g>
<!-- { provide: AuthServiceConfig, useFactory: getAuthServiceConfigs } -->
<g id="node12" class="node">
<title>{ provide: AuthServiceConfig, useFactory: getAuthServiceConfigs }</title>
<ellipse fill="#fdb462" stroke="#000000" cx="740" cy="-104" rx="277.5248" ry="18"/>
<text text-anchor="middle" x="740" y="-99.8" font-family="Times,serif" font-size="14.00" fill="#000000">{ provide: AuthServiceConfig, useFactory: getAuthServiceConfigs }</text>
</g>
<!-- { provide: AuthServiceConfig, useFactory: getAuthServiceConfigs }&#45;&gt;AppModule -->
<g id="edge11" class="edge">
<title>{ provide: AuthServiceConfig, useFactory: getAuthServiceConfigs }&#45;&gt;AppModule</title>
<path fill="none" stroke="#000000" d="M740,-122.1061C740,-141.3391 740,-169 740,-169 740,-169 1812.3269,-169 1812.3269,-169"/>
<polygon fill="#000000" stroke="#000000" points="1812.3269,-172.5001 1822.3269,-169 1812.3268,-165.5001 1812.3269,-172.5001"/>
</g>
<!-- AuthInterceptorProvider -->
<g id="node13" class="node">
<title>AuthInterceptorProvider</title>
<ellipse fill="#fdb462" stroke="#000000" cx="338" cy="-104" rx="105.9189" ry="18"/>
<text text-anchor="middle" x="338" y="-99.8" font-family="Times,serif" font-size="14.00" fill="#000000">AuthInterceptorProvider</text>
</g>
<!-- AuthInterceptorProvider&#45;&gt;AppModule -->
<g id="edge12" class="edge">
<title>AuthInterceptorProvider&#45;&gt;AppModule</title>
<path fill="none" stroke="#000000" d="M338,-122.2843C338,-143.3211 338,-175 338,-175 338,-175 1811.9934,-175 1811.9934,-175"/>
<polygon fill="#000000" stroke="#000000" points="1811.9935,-178.5001 1821.9934,-175 1811.9934,-171.5001 1811.9935,-178.5001"/>
</g>
<!-- fakeBackendProvider -->
<g id="node14" class="node">
<title>fakeBackendProvider</title>
<ellipse fill="#fdb462" stroke="#000000" cx="119" cy="-104" rx="94.8858" ry="18"/>
<text text-anchor="middle" x="119" y="-99.8" font-family="Times,serif" font-size="14.00" fill="#000000">fakeBackendProvider</text>
</g>
<!-- fakeBackendProvider&#45;&gt;AppModule -->
<g id="edge13" class="edge">
<title>fakeBackendProvider&#45;&gt;AppModule</title>
<path fill="none" stroke="#000000" d="M119,-122.2479C119,-145.0179 119,-181 119,-181 119,-181 1812.1588,-181 1812.1588,-181"/>
<polygon fill="#000000" stroke="#000000" points="1812.1589,-184.5001 1822.1588,-181 1812.1588,-177.5001 1812.1589,-184.5001"/>
</g>
</g>
</svg>
