<?xml version="1.0" encoding="UTF-8" standalone="no"?>
<!DOCTYPE svg PUBLIC "-//W3C//DTD SVG 1.1//EN"
 "http://www.w3.org/Graphics/SVG/1.1/DTD/svg11.dtd">
<!-- Generated by graphviz version 2.40.1 (20161225.0304)
 -->
<!-- Title: dependencies Pages: 1 -->
<svg width="2307pt" height="211pt"
 viewBox="0.00 0.00 2307.00 211.00" xmlns="http://www.w3.org/2000/svg" xmlns:xlink="http://www.w3.org/1999/xlink">
<g id="graph0" class="graph" transform="scale(1 1) rotate(0) translate(4 207)">
<title>dependencies</title>
<polygon fill="#ffffff" stroke="transparent" points="-4,4 -4,-207 2303,-207 2303,4 -4,4"/>
<text text-anchor="start" x="1128.5091" y="-42.4" font-family="sans-serif" font-weight="bold" font-size="14.00" fill="#000000">Legend</text>
<polygon fill="#ffffb3" stroke="transparent" points="915.5,-10 915.5,-30 935.5,-30 935.5,-10 915.5,-10"/>
<text text-anchor="start" x="939.129" y="-15.4" font-family="sans-serif" font-size="14.00" fill="#000000"> &#160;Declarations</text>
<polygon fill="#8dd3c7" stroke="transparent" points="1028.5,-10 1028.5,-30 1048.5,-30 1048.5,-10 1028.5,-10"/>
<text text-anchor="start" x="1052.2251" y="-15.4" font-family="sans-serif" font-size="14.00" fill="#000000"> &#160;Module</text>
<polygon fill="#80b1d3" stroke="transparent" points="1114.5,-10 1114.5,-30 1134.5,-30 1134.5,-10 1114.5,-10"/>
<text text-anchor="start" x="1138.2812" y="-15.4" font-family="sans-serif" font-size="14.00" fill="#000000"> &#160;Bootstrap</text>
<polygon fill="#fdb462" stroke="transparent" points="1211.5,-10 1211.5,-30 1231.5,-30 1231.5,-10 1211.5,-10"/>
<text text-anchor="start" x="1235.1732" y="-15.4" font-family="sans-serif" font-size="14.00" fill="#000000"> &#160;Providers</text>
<polygon fill="#fb8072" stroke="transparent" points="1307.5,-10 1307.5,-30 1327.5,-30 1327.5,-10 1307.5,-10"/>
<text text-anchor="start" x="1331.2258" y="-15.4" font-family="sans-serif" font-size="14.00" fill="#000000"> &#160;Exports</text>
<g id="clust1" class="cluster">
<title>cluster_DocumentEditionModule</title>
<polygon fill="none" stroke="#000000" stroke-dasharray="1,5" points="8,-70 8,-195 2291,-195 2291,-70 8,-70"/>
</g>
<g id="clust2" class="cluster">
<title>cluster_DocumentEditionModule_declarations</title>
<polygon fill="none" stroke="#000000" points="369,-78 369,-130 2283,-130 2283,-78 369,-78"/>
</g>
<g id="clust13" class="cluster">
<title>cluster_DocumentEditionModule_imports</title>
<polygon fill="none" stroke="#000000" points="16,-78 16,-130 361,-130 361,-78 16,-78"/>
</g>
<!-- ActorsEditorComponent -->
<g id="node1" class="node">
<title>ActorsEditorComponent</title>
<polygon fill="#ffffb3" stroke="#000000" points="2274.6442,-122 2121.3558,-122 2121.3558,-86 2274.6442,-86 2274.6442,-122"/>
<text text-anchor="middle" x="2198" y="-99.8" font-family="Times,serif" font-size="14.00" fill="#000000">ActorsEditorComponent</text>
</g>
<!-- DocumentEditionModule -->
<g id="node11" class="node">
<title>DocumentEditionModule</title>
<polygon fill="#8dd3c7" stroke="#000000" points="1236.5912,-187 1233.5912,-191 1212.5912,-191 1209.5912,-187 1077.4088,-187 1077.4088,-151 1236.5912,-151 1236.5912,-187"/>
<text text-anchor="middle" x="1157" y="-164.8" font-family="Times,serif" font-size="14.00" fill="#000000">DocumentEditionModule</text>
</g>
<!-- ActorsEditorComponent&#45;&gt;DocumentEditionModule -->
<g id="edge1" class="edge">
<title>ActorsEditorComponent&#45;&gt;DocumentEditionModule</title>
<path fill="none" stroke="#000000" d="M2198,-122.0908C2198,-145.1328 2198,-182 2198,-182 2198,-182 1246.957,-182 1246.957,-182"/>
<polygon fill="#000000" stroke="#000000" points="1246.957,-178.5001 1236.957,-182 1246.957,-185.5001 1246.957,-178.5001"/>
</g>
<!-- AuthorsEditorComponent -->
<g id="node2" class="node">
<title>AuthorsEditorComponent</title>
<polygon fill="#ffffb3" stroke="#000000" points="2102.9298,-122 1941.0702,-122 1941.0702,-86 2102.9298,-86 2102.9298,-122"/>
<text text-anchor="middle" x="2022" y="-99.8" font-family="Times,serif" font-size="14.00" fill="#000000">AuthorsEditorComponent</text>
</g>
<!-- AuthorsEditorComponent&#45;&gt;DocumentEditionModule -->
<g id="edge2" class="edge">
<title>AuthorsEditorComponent&#45;&gt;DocumentEditionModule</title>
<path fill="none" stroke="#000000" d="M2022,-122.2843C2022,-143.3211 2022,-175 2022,-175 2022,-175 1246.8267,-175 1246.8267,-175"/>
<polygon fill="#000000" stroke="#000000" points="1246.8267,-171.5001 1236.8267,-175 1246.8266,-178.5001 1246.8267,-171.5001"/>
</g>
<!-- DateTimelineEditorComponent -->
<g id="node3" class="node">
<title>DateTimelineEditorComponent</title>
<polygon fill="#ffffb3" stroke="#000000" points="1923.7976,-122 1730.2024,-122 1730.2024,-86 1923.7976,-86 1923.7976,-122"/>
<text text-anchor="middle" x="1827" y="-99.8" font-family="Times,serif" font-size="14.00" fill="#000000">DateTimelineEditorComponent</text>
</g>
<!-- DateTimelineEditorComponent&#45;&gt;DocumentEditionModule -->
<g id="edge3" class="edge">
<title>DateTimelineEditorComponent&#45;&gt;DocumentEditionModule</title>
<path fill="none" stroke="#000000" d="M1827,-122.1061C1827,-141.3391 1827,-169 1827,-169 1827,-169 1246.8202,-169 1246.8202,-169"/>
<polygon fill="#000000" stroke="#000000" points="1246.8203,-165.5001 1236.8202,-169 1246.8202,-172.5001 1246.8203,-165.5001"/>
</g>
<!-- DescriptionEditorComponent -->
<g id="node4" class="node">
<title>DescriptionEditorComponent</title>
<polygon fill="#ffffb3" stroke="#000000" points="1712.64,-122 1531.36,-122 1531.36,-86 1712.64,-86 1712.64,-122"/>
<text text-anchor="middle" x="1622" y="-99.8" font-family="Times,serif" font-size="14.00" fill="#000000">DescriptionEditorComponent</text>
</g>
<!-- DescriptionEditorComponent&#45;&gt;DocumentEditionModule -->
<g id="edge4" class="edge">
<title>DescriptionEditorComponent&#45;&gt;DocumentEditionModule</title>
<path fill="none" stroke="#000000" d="M1622,-122.0225C1622,-139.3734 1622,-163 1622,-163 1622,-163 1246.672,-163 1246.672,-163"/>
<polygon fill="#000000" stroke="#000000" points="1246.6721,-159.5001 1236.672,-163 1246.672,-166.5001 1246.6721,-159.5001"/>
</g>
<!-- DocSidebarComponent -->
<g id="node5" class="node">
<title>DocSidebarComponent</title>
<polygon fill="#ffffb3" stroke="#000000" points="1512.9172,-122 1365.0828,-122 1365.0828,-86 1512.9172,-86 1512.9172,-122"/>
<text text-anchor="middle" x="1439" y="-99.8" font-family="Times,serif" font-size="14.00" fill="#000000">DocSidebarComponent</text>
</g>
<!-- DocSidebarComponent&#45;&gt;DocumentEditionModule -->
<g id="edge5" class="edge">
<title>DocSidebarComponent&#45;&gt;DocumentEditionModule</title>
<path fill="none" stroke="#000000" d="M1439,-122.2396C1439,-137.5706 1439,-157 1439,-157 1439,-157 1246.6791,-157 1246.6791,-157"/>
<polygon fill="#000000" stroke="#000000" points="1246.6792,-153.5001 1236.6791,-157 1246.6791,-160.5001 1246.6792,-153.5001"/>
</g>
<!-- DocumentEditionComponent -->
<g id="node6" class="node">
<title>DocumentEditionComponent</title>
<polygon fill="#ffffb3" stroke="#000000" points="1347.3738,-122 1166.6262,-122 1166.6262,-86 1347.3738,-86 1347.3738,-122"/>
<text text-anchor="middle" x="1257" y="-99.8" font-family="Times,serif" font-size="14.00" fill="#000000">DocumentEditionComponent</text>
</g>
<!-- DocumentEditionComponent&#45;&gt;DocumentEditionModule -->
<g id="edge6" class="edge">
<title>DocumentEditionComponent&#45;&gt;DocumentEditionModule</title>
<path fill="none" stroke="#000000" d="M1201.5543,-122.1061C1201.5543,-122.1061 1201.5543,-140.991 1201.5543,-140.991"/>
<polygon fill="#000000" stroke="#000000" points="1198.0544,-140.9909 1201.5543,-150.991 1205.0544,-140.991 1198.0544,-140.9909"/>
</g>
<!-- DocumentOptionsComponent -->
<g id="node7" class="node">
<title>DocumentOptionsComponent</title>
<polygon fill="#ffffb3" stroke="#000000" points="1148.9818,-122 965.0182,-122 965.0182,-86 1148.9818,-86 1148.9818,-122"/>
<text text-anchor="middle" x="1057" y="-99.8" font-family="Times,serif" font-size="14.00" fill="#000000">DocumentOptionsComponent</text>
</g>
<!-- DocumentOptionsComponent&#45;&gt;DocumentEditionModule -->
<g id="edge7" class="edge">
<title>DocumentOptionsComponent&#45;&gt;DocumentEditionModule</title>
<path fill="none" stroke="#000000" d="M1113.2227,-122.1061C1113.2227,-122.1061 1113.2227,-140.991 1113.2227,-140.991"/>
<polygon fill="#000000" stroke="#000000" points="1109.7227,-140.9909 1113.2227,-150.991 1116.7227,-140.991 1109.7227,-140.9909"/>
</g>
<!-- LocationsEditorComponent -->
<g id="node8" class="node">
<title>LocationsEditorComponent</title>
<polygon fill="#ffffb3" stroke="#000000" points="946.535,-122 775.465,-122 775.465,-86 946.535,-86 946.535,-122"/>
<text text-anchor="middle" x="861" y="-99.8" font-family="Times,serif" font-size="14.00" fill="#000000">LocationsEditorComponent</text>
</g>
<!-- LocationsEditorComponent&#45;&gt;DocumentEditionModule -->
<g id="edge8" class="edge">
<title>LocationsEditorComponent&#45;&gt;DocumentEditionModule</title>
<path fill="none" stroke="#000000" d="M861,-122.2396C861,-137.5706 861,-157 861,-157 861,-157 1067.2881,-157 1067.2881,-157"/>
<polygon fill="#000000" stroke="#000000" points="1067.2881,-160.5001 1077.2881,-157 1067.288,-153.5001 1067.2881,-160.5001"/>
</g>
<!-- SectionEditorComponent -->
<g id="node9" class="node">
<title>SectionEditorComponent</title>
<polygon fill="#ffffb3" stroke="#000000" points="757.3201,-122 598.6799,-122 598.6799,-86 757.3201,-86 757.3201,-122"/>
<text text-anchor="middle" x="678" y="-99.8" font-family="Times,serif" font-size="14.00" fill="#000000">SectionEditorComponent</text>
</g>
<!-- SectionEditorComponent&#45;&gt;DocumentEditionModule -->
<g id="edge9" class="edge">
<title>SectionEditorComponent&#45;&gt;DocumentEditionModule</title>
<path fill="none" stroke="#000000" d="M678,-122.0225C678,-139.3734 678,-163 678,-163 678,-163 1067.3652,-163 1067.3652,-163"/>
<polygon fill="#000000" stroke="#000000" points="1067.3652,-166.5001 1077.3652,-163 1067.3652,-159.5001 1067.3652,-166.5001"/>
</g>
<!-- TagsCategoriesEditorComponent -->
<g id="node10" class="node">
<title>TagsCategoriesEditorComponent</title>
<polygon fill="#ffffb3" stroke="#000000" points="580.9058,-122 377.0942,-122 377.0942,-86 580.9058,-86 580.9058,-122"/>
<text text-anchor="middle" x="479" y="-99.8" font-family="Times,serif" font-size="14.00" fill="#000000">TagsCategoriesEditorComponent</text>
</g>
<!-- TagsCategoriesEditorComponent&#45;&gt;DocumentEditionModule -->
<g id="edge10" class="edge">
<title>TagsCategoriesEditorComponent&#45;&gt;DocumentEditionModule</title>
<path fill="none" stroke="#000000" d="M479,-122.1061C479,-141.3391 479,-169 479,-169 479,-169 1067.2311,-169 1067.2311,-169"/>
<polygon fill="#000000" stroke="#000000" points="1067.2311,-172.5001 1077.2311,-169 1067.231,-165.5001 1067.2311,-172.5001"/>
</g>
<!-- DocumentEditionRoutingModule -->
<g id="node12" class="node">
<title>DocumentEditionRoutingModule</title>
<polygon fill="#8dd3c7" stroke="#000000" points="353.2091,-122 350.2091,-126 329.2091,-126 326.2091,-122 148.7909,-122 148.7909,-86 353.2091,-86 353.2091,-122"/>
<text text-anchor="middle" x="251" y="-99.8" font-family="Times,serif" font-size="14.00" fill="#000000">DocumentEditionRoutingModule</text>
</g>
<!-- DocumentEditionRoutingModule&#45;&gt;DocumentEditionModule -->
<g id="edge11" class="edge">
<title>DocumentEditionRoutingModule&#45;&gt;DocumentEditionModule</title>
<path fill="none" stroke="#000000" d="M251,-122.2843C251,-143.3211 251,-175 251,-175 251,-175 1067.3926,-175 1067.3926,-175"/>
<polygon fill="#000000" stroke="#000000" points="1067.3926,-178.5001 1077.3926,-175 1067.3926,-171.5001 1067.3926,-178.5001"/>
</g>
<!-- MaterialModule -->
<g id="node13" class="node">
<title>MaterialModule</title>
<polygon fill="#8dd3c7" stroke="#000000" points="130.4706,-122 127.4706,-126 106.4706,-126 103.4706,-122 23.5294,-122 23.5294,-86 130.4706,-86 130.4706,-122"/>
<text text-anchor="middle" x="77" y="-99.8" font-family="Times,serif" font-size="14.00" fill="#000000">MaterialModule</text>
</g>
<!-- MaterialModule&#45;&gt;DocumentEditionModule -->
<g id="edge12" class="edge">
<title>MaterialModule&#45;&gt;DocumentEditionModule</title>
<path fill="none" stroke="#000000" d="M77,-122.0908C77,-145.1328 77,-182 77,-182 77,-182 1067.1464,-182 1067.1464,-182"/>
<polygon fill="#000000" stroke="#000000" points="1067.1465,-185.5001 1077.1464,-182 1067.1464,-178.5001 1067.1465,-185.5001"/>
</g>
</g>
</svg>
