<?xml version="1.0" encoding="UTF-8" standalone="no"?>
<!DOCTYPE svg PUBLIC "-//W3C//DTD SVG 1.1//EN"
 "http://www.w3.org/Graphics/SVG/1.1/DTD/svg11.dtd">
<!-- Generated by graphviz version 2.40.1 (20161225.0304)
 -->
<!-- Title: dependencies Pages: 1 -->
<svg width="2568pt" height="211pt"
 viewBox="0.00 0.00 2568.00 211.00" xmlns="http://www.w3.org/2000/svg" xmlns:xlink="http://www.w3.org/1999/xlink">
<g id="graph0" class="graph" transform="scale(1 1) rotate(0) translate(4 207)">
<title>dependencies</title>
<polygon fill="#ffffff" stroke="transparent" points="-4,4 -4,-207 2564,-207 2564,4 -4,4"/>
<text text-anchor="start" x="1259.0091" y="-42.4" font-family="sans-serif" font-weight="bold" font-size="14.00" fill="#000000">Legend</text>
<polygon fill="#ffffb3" stroke="transparent" points="1046,-10 1046,-30 1066,-30 1066,-10 1046,-10"/>
<text text-anchor="start" x="1069.629" y="-15.4" font-family="sans-serif" font-size="14.00" fill="#000000"> &#160;Declarations</text>
<polygon fill="#8dd3c7" stroke="transparent" points="1159,-10 1159,-30 1179,-30 1179,-10 1159,-10"/>
<text text-anchor="start" x="1182.7251" y="-15.4" font-family="sans-serif" font-size="14.00" fill="#000000"> &#160;Module</text>
<polygon fill="#80b1d3" stroke="transparent" points="1245,-10 1245,-30 1265,-30 1265,-10 1245,-10"/>
<text text-anchor="start" x="1268.7812" y="-15.4" font-family="sans-serif" font-size="14.00" fill="#000000"> &#160;Bootstrap</text>
<polygon fill="#fdb462" stroke="transparent" points="1342,-10 1342,-30 1362,-30 1362,-10 1342,-10"/>
<text text-anchor="start" x="1365.6732" y="-15.4" font-family="sans-serif" font-size="14.00" fill="#000000"> &#160;Providers</text>
<polygon fill="#fb8072" stroke="transparent" points="1438,-10 1438,-30 1458,-30 1458,-10 1438,-10"/>
<text text-anchor="start" x="1461.7258" y="-15.4" font-family="sans-serif" font-size="14.00" fill="#000000"> &#160;Exports</text>
<g id="clust1" class="cluster">
<title>cluster_DocumentEditionModule</title>
<polygon fill="none" stroke="#000000" stroke-dasharray="1,5" points="8,-70 8,-195 2552,-195 2552,-70 8,-70"/>
</g>
<g id="clust2" class="cluster">
<title>cluster_DocumentEditionModule_declarations</title>
<polygon fill="none" stroke="#000000" points="631,-78 631,-130 2544,-130 2544,-78 631,-78"/>
</g>
<g id="clust13" class="cluster">
<title>cluster_DocumentEditionModule_imports</title>
<polygon fill="none" stroke="#000000" points="16,-78 16,-130 623,-130 623,-78 16,-78"/>
</g>
<!-- DocumentEditionComponent -->
<g id="node1" class="node">
<title>DocumentEditionComponent</title>
<polygon fill="#ffffb3" stroke="#000000" points="2536.3738,-122 2355.6262,-122 2355.6262,-86 2536.3738,-86 2536.3738,-122"/>
<text text-anchor="middle" x="2446" y="-99.8" font-family="Times,serif" font-size="14.00" fill="#000000">DocumentEditionComponent</text>
</g>
<!-- DocumentEditionModule -->
<g id="node11" class="node">
<title>DocumentEditionModule</title>
<polygon fill="#8dd3c7" stroke="#000000" points="1266.5912,-187 1263.5912,-191 1242.5912,-191 1239.5912,-187 1107.4088,-187 1107.4088,-151 1266.5912,-151 1266.5912,-187"/>
<text text-anchor="middle" x="1187" y="-164.8" font-family="Times,serif" font-size="14.00" fill="#000000">DocumentEditionModule</text>
</g>
<!-- DocumentEditionComponent&#45;&gt;DocumentEditionModule -->
<g id="edge1" class="edge">
<title>DocumentEditionComponent&#45;&gt;DocumentEditionModule</title>
<path fill="none" stroke="#000000" d="M2446,-122.0908C2446,-145.1328 2446,-182 2446,-182 2446,-182 1276.7112,-182 1276.7112,-182"/>
<polygon fill="#000000" stroke="#000000" points="1276.7112,-178.5001 1266.7112,-182 1276.7112,-185.5001 1276.7112,-178.5001"/>
</g>
<!-- DocumentOptionsComponent -->
<g id="node2" class="node">
<title>DocumentOptionsComponent</title>
<polygon fill="#ffffb3" stroke="#000000" points="2337.9818,-122 2154.0182,-122 2154.0182,-86 2337.9818,-86 2337.9818,-122"/>
<text text-anchor="middle" x="2246" y="-99.8" font-family="Times,serif" font-size="14.00" fill="#000000">DocumentOptionsComponent</text>
</g>
<!-- DocumentOptionsComponent&#45;&gt;DocumentEditionModule -->
<g id="edge2" class="edge">
<title>DocumentOptionsComponent&#45;&gt;DocumentEditionModule</title>
<path fill="none" stroke="#000000" d="M2246,-122.0449C2246,-143.6623 2246,-177 2246,-177 2246,-177 1276.5971,-177 1276.5971,-177"/>
<polygon fill="#000000" stroke="#000000" points="1276.5972,-173.5001 1266.5971,-177 1276.5971,-180.5001 1276.5972,-173.5001"/>
</g>
<!-- SectionEditorComponent -->
<g id="node3" class="node">
<title>SectionEditorComponent</title>
<polygon fill="#ffffb3" stroke="#000000" points="2136.3201,-122 1977.6799,-122 1977.6799,-86 2136.3201,-86 2136.3201,-122"/>
<text text-anchor="middle" x="2057" y="-99.8" font-family="Times,serif" font-size="14.00" fill="#000000">SectionEditorComponent</text>
</g>
<!-- SectionEditorComponent&#45;&gt;DocumentEditionModule -->
<g id="edge3" class="edge">
<title>SectionEditorComponent&#45;&gt;DocumentEditionModule</title>
<path fill="none" stroke="#000000" d="M2057,-122.2228C2057,-142.3652 2057,-172 2057,-172 2057,-172 1276.9002,-172 1276.9002,-172"/>
<polygon fill="#000000" stroke="#000000" points="1276.9002,-168.5001 1266.9002,-172 1276.9001,-175.5001 1276.9002,-168.5001"/>
</g>
<!-- DocSidebarComponent -->
<g id="node4" class="node">
<title>DocSidebarComponent</title>
<polygon fill="#ffffb3" stroke="#000000" points="1959.9172,-122 1812.0828,-122 1812.0828,-86 1959.9172,-86 1959.9172,-122"/>
<text text-anchor="middle" x="1886" y="-99.8" font-family="Times,serif" font-size="14.00" fill="#000000">DocSidebarComponent</text>
</g>
<!-- DocSidebarComponent&#45;&gt;DocumentEditionModule -->
<g id="edge4" class="edge">
<title>DocSidebarComponent&#45;&gt;DocumentEditionModule</title>
<path fill="none" stroke="#000000" d="M1886,-122.2222C1886,-140.8285 1886,-167 1886,-167 1886,-167 1276.8436,-167 1276.8436,-167"/>
<polygon fill="#000000" stroke="#000000" points="1276.8437,-163.5001 1266.8436,-167 1276.8436,-170.5001 1276.8437,-163.5001"/>
</g>
<!-- DescriptionEditorComponent -->
<g id="node5" class="node">
<title>DescriptionEditorComponent</title>
<polygon fill="#ffffb3" stroke="#000000" points="1793.64,-122 1612.36,-122 1612.36,-86 1793.64,-86 1793.64,-122"/>
<text text-anchor="middle" x="1703" y="-99.8" font-family="Times,serif" font-size="14.00" fill="#000000">DescriptionEditorComponent</text>
</g>
<!-- DescriptionEditorComponent&#45;&gt;DocumentEditionModule -->
<g id="edge5" class="edge">
<title>DescriptionEditorComponent&#45;&gt;DocumentEditionModule</title>
<path fill="none" stroke="#000000" d="M1703,-122.0336C1703,-139.0597 1703,-162 1703,-162 1703,-162 1276.7763,-162 1276.7763,-162"/>
<polygon fill="#000000" stroke="#000000" points="1276.7764,-158.5001 1266.7763,-162 1276.7763,-165.5001 1276.7764,-158.5001"/>
</g>
<!-- TagsCategoriesEditorComponent -->
<g id="node6" class="node">
<title>TagsCategoriesEditorComponent</title>
<polygon fill="#ffffb3" stroke="#000000" points="1593.9058,-122 1390.0942,-122 1390.0942,-86 1593.9058,-86 1593.9058,-122"/>
<text text-anchor="middle" x="1492" y="-99.8" font-family="Times,serif" font-size="14.00" fill="#000000">TagsCategoriesEditorComponent</text>
</g>
<!-- TagsCategoriesEditorComponent&#45;&gt;DocumentEditionModule -->
<g id="edge6" class="edge">
<title>TagsCategoriesEditorComponent&#45;&gt;DocumentEditionModule</title>
<path fill="none" stroke="#000000" d="M1492,-122.2396C1492,-137.5706 1492,-157 1492,-157 1492,-157 1276.7368,-157 1276.7368,-157"/>
<polygon fill="#000000" stroke="#000000" points="1276.7368,-153.5001 1266.7368,-157 1276.7367,-160.5001 1276.7368,-153.5001"/>
</g>
<!-- LocationsEditorComponent -->
<g id="node7" class="node">
<title>LocationsEditorComponent</title>
<polygon fill="#ffffb3" stroke="#000000" points="1372.535,-122 1201.465,-122 1201.465,-86 1372.535,-86 1372.535,-122"/>
<text text-anchor="middle" x="1287" y="-99.8" font-family="Times,serif" font-size="14.00" fill="#000000">LocationsEditorComponent</text>
</g>
<!-- LocationsEditorComponent&#45;&gt;DocumentEditionModule -->
<g id="edge7" class="edge">
<title>LocationsEditorComponent&#45;&gt;DocumentEditionModule</title>
<path fill="none" stroke="#000000" d="M1233.8892,-122.1061C1233.8892,-122.1061 1233.8892,-140.991 1233.8892,-140.991"/>
<polygon fill="#000000" stroke="#000000" points="1230.3893,-140.9909 1233.8892,-150.991 1237.3893,-140.991 1230.3893,-140.9909"/>
</g>
<!-- DateTimelineEditorComponent -->
<g id="node8" class="node">
<title>DateTimelineEditorComponent</title>
<polygon fill="#ffffb3" stroke="#000000" points="1183.7976,-122 990.2024,-122 990.2024,-86 1183.7976,-86 1183.7976,-122"/>
<text text-anchor="middle" x="1087" y="-99.8" font-family="Times,serif" font-size="14.00" fill="#000000">DateTimelineEditorComponent</text>
</g>
<!-- DateTimelineEditorComponent&#45;&gt;DocumentEditionModule -->
<g id="edge8" class="edge">
<title>DateTimelineEditorComponent&#45;&gt;DocumentEditionModule</title>
<path fill="none" stroke="#000000" d="M1145.5516,-122.1061C1145.5516,-122.1061 1145.5516,-140.991 1145.5516,-140.991"/>
<polygon fill="#000000" stroke="#000000" points="1142.0516,-140.9909 1145.5516,-150.991 1149.0516,-140.991 1142.0516,-140.9909"/>
</g>
<!-- AuthorsEditorComponent -->
<g id="node9" class="node">
<title>AuthorsEditorComponent</title>
<polygon fill="#ffffb3" stroke="#000000" points="972.9298,-122 811.0702,-122 811.0702,-86 972.9298,-86 972.9298,-122"/>
<text text-anchor="middle" x="892" y="-99.8" font-family="Times,serif" font-size="14.00" fill="#000000">AuthorsEditorComponent</text>
</g>
<!-- AuthorsEditorComponent&#45;&gt;DocumentEditionModule -->
<g id="edge9" class="edge">
<title>AuthorsEditorComponent&#45;&gt;DocumentEditionModule</title>
<path fill="none" stroke="#000000" d="M892,-122.2396C892,-137.5706 892,-157 892,-157 892,-157 1097.1688,-157 1097.1688,-157"/>
<polygon fill="#000000" stroke="#000000" points="1097.1688,-160.5001 1107.1688,-157 1097.1687,-153.5001 1097.1688,-160.5001"/>
</g>
<!-- ActorsEditorComponent -->
<g id="node10" class="node">
<title>ActorsEditorComponent</title>
<polygon fill="#ffffb3" stroke="#000000" points="792.6442,-122 639.3558,-122 639.3558,-86 792.6442,-86 792.6442,-122"/>
<text text-anchor="middle" x="716" y="-99.8" font-family="Times,serif" font-size="14.00" fill="#000000">ActorsEditorComponent</text>
</g>
<!-- ActorsEditorComponent&#45;&gt;DocumentEditionModule -->
<g id="edge10" class="edge">
<title>ActorsEditorComponent&#45;&gt;DocumentEditionModule</title>
<path fill="none" stroke="#000000" d="M716,-122.0336C716,-139.0597 716,-162 716,-162 716,-162 1097.3677,-162 1097.3677,-162"/>
<polygon fill="#000000" stroke="#000000" points="1097.3678,-165.5001 1107.3677,-162 1097.3677,-158.5001 1097.3678,-165.5001"/>
</g>
<!-- CommonModule -->
<g id="node12" class="node">
<title>CommonModule</title>
<polygon fill="#8dd3c7" stroke="#000000" points="614.6681,-122 611.6681,-126 590.6681,-126 587.6681,-122 503.3319,-122 503.3319,-86 614.6681,-86 614.6681,-122"/>
<text text-anchor="middle" x="559" y="-99.8" font-family="Times,serif" font-size="14.00" fill="#000000">CommonModule</text>
</g>
<!-- CommonModule&#45;&gt;DocumentEditionModule -->
<g id="edge11" class="edge">
<title>CommonModule&#45;&gt;DocumentEditionModule</title>
<path fill="none" stroke="#000000" d="M559,-122.2222C559,-140.8285 559,-167 559,-167 559,-167 1097.1447,-167 1097.1447,-167"/>
<polygon fill="#000000" stroke="#000000" points="1097.1447,-170.5001 1107.1447,-167 1097.1446,-163.5001 1097.1447,-170.5001"/>
</g>
<!-- CKEditorModule -->
<g id="node13" class="node">
<title>CKEditorModule</title>
<polygon fill="#8dd3c7" stroke="#000000" points="484.9874,-122 481.9874,-126 460.9874,-126 457.9874,-122 371.0126,-122 371.0126,-86 484.9874,-86 484.9874,-122"/>
<text text-anchor="middle" x="428" y="-99.8" font-family="Times,serif" font-size="14.00" fill="#000000">CKEditorModule</text>
</g>
<!-- CKEditorModule&#45;&gt;DocumentEditionModule -->
<g id="edge12" class="edge">
<title>CKEditorModule&#45;&gt;DocumentEditionModule</title>
<path fill="none" stroke="#000000" d="M428,-122.2228C428,-142.3652 428,-172 428,-172 428,-172 1097.2083,-172 1097.2083,-172"/>
<polygon fill="#000000" stroke="#000000" points="1097.2083,-175.5001 1107.2083,-172 1097.2082,-168.5001 1097.2083,-175.5001"/>
</g>
<!-- MaterialModule -->
<g id="node14" class="node">
<title>MaterialModule</title>
<polygon fill="#8dd3c7" stroke="#000000" points="353.4706,-122 350.4706,-126 329.4706,-126 326.4706,-122 246.5294,-122 246.5294,-86 353.4706,-86 353.4706,-122"/>
<text text-anchor="middle" x="300" y="-99.8" font-family="Times,serif" font-size="14.00" fill="#000000">MaterialModule</text>
</g>
<!-- MaterialModule&#45;&gt;DocumentEditionModule -->
<g id="edge13" class="edge">
<title>MaterialModule&#45;&gt;DocumentEditionModule</title>
<path fill="none" stroke="#000000" d="M300,-122.0449C300,-143.6623 300,-177 300,-177 300,-177 1097.1126,-177 1097.1126,-177"/>
<polygon fill="#000000" stroke="#000000" points="1097.1126,-180.5001 1107.1126,-177 1097.1125,-173.5001 1097.1126,-180.5001"/>
</g>
<!-- DocumentEditionRoutingModule -->
<g id="node15" class="node">
<title>DocumentEditionRoutingModule</title>
<polygon fill="#8dd3c7" stroke="#000000" points="228.2091,-122 225.2091,-126 204.2091,-126 201.2091,-122 23.7909,-122 23.7909,-86 228.2091,-86 228.2091,-122"/>
<text text-anchor="middle" x="126" y="-99.8" font-family="Times,serif" font-size="14.00" fill="#000000">DocumentEditionRoutingModule</text>
</g>
<!-- DocumentEditionRoutingModule&#45;&gt;DocumentEditionModule -->
<g id="edge14" class="edge">
<title>DocumentEditionRoutingModule&#45;&gt;DocumentEditionModule</title>
<path fill="none" stroke="#000000" d="M126,-122.0908C126,-145.1328 126,-182 126,-182 126,-182 1097.2526,-182 1097.2526,-182"/>
<polygon fill="#000000" stroke="#000000" points="1097.2526,-185.5001 1107.2526,-182 1097.2525,-178.5001 1097.2526,-185.5001"/>
</g>
</g>
</svg>
