<?xml version="1.0" encoding="UTF-8" standalone="no"?>
<!DOCTYPE svg PUBLIC "-//W3C//DTD SVG 1.1//EN"
 "http://www.w3.org/Graphics/SVG/1.1/DTD/svg11.dtd">
<!-- Generated by graphviz version 2.40.1 (20161225.0304)
 -->
<!-- Title: dependencies Pages: 1 -->
<svg width="1361pt" height="211pt"
 viewBox="0.00 0.00 1361.00 211.00" xmlns="http://www.w3.org/2000/svg" xmlns:xlink="http://www.w3.org/1999/xlink">
<g id="graph0" class="graph" transform="scale(1 1) rotate(0) translate(4 207)">
<title>dependencies</title>
<polygon fill="#ffffff" stroke="transparent" points="-4,4 -4,-207 1357,-207 1357,4 -4,4"/>
<text text-anchor="start" x="655.5091" y="-42.4" font-family="sans-serif" font-weight="bold" font-size="14.00" fill="#000000">Legend</text>
<polygon fill="#ffffb3" stroke="transparent" points="442.5,-10 442.5,-30 462.5,-30 462.5,-10 442.5,-10"/>
<text text-anchor="start" x="466.129" y="-15.4" font-family="sans-serif" font-size="14.00" fill="#000000"> &#160;Declarations</text>
<polygon fill="#8dd3c7" stroke="transparent" points="555.5,-10 555.5,-30 575.5,-30 575.5,-10 555.5,-10"/>
<text text-anchor="start" x="579.2251" y="-15.4" font-family="sans-serif" font-size="14.00" fill="#000000"> &#160;Module</text>
<polygon fill="#80b1d3" stroke="transparent" points="641.5,-10 641.5,-30 661.5,-30 661.5,-10 641.5,-10"/>
<text text-anchor="start" x="665.2812" y="-15.4" font-family="sans-serif" font-size="14.00" fill="#000000"> &#160;Bootstrap</text>
<polygon fill="#fdb462" stroke="transparent" points="738.5,-10 738.5,-30 758.5,-30 758.5,-10 738.5,-10"/>
<text text-anchor="start" x="762.1732" y="-15.4" font-family="sans-serif" font-size="14.00" fill="#000000"> &#160;Providers</text>
<polygon fill="#fb8072" stroke="transparent" points="834.5,-10 834.5,-30 854.5,-30 854.5,-10 834.5,-10"/>
<text text-anchor="start" x="858.2258" y="-15.4" font-family="sans-serif" font-size="14.00" fill="#000000"> &#160;Exports</text>
<g id="clust1" class="cluster">
<title>cluster_DefaultModule</title>
<polygon fill="none" stroke="#000000" stroke-dasharray="1,5" points="8,-70 8,-195 1345,-195 1345,-70 8,-70"/>
</g>
<g id="clust2" class="cluster">
<title>cluster_DefaultModule_declarations</title>
<polygon fill="none" stroke="#000000" points="643,-78 643,-130 1337,-130 1337,-78 643,-78"/>
</g>
<g id="clust7" class="cluster">
<title>cluster_DefaultModule_imports</title>
<polygon fill="none" stroke="#000000" points="16,-78 16,-130 635,-130 635,-78 16,-78"/>
</g>
<!-- DefaultComponent -->
<g id="node1" class="node">
<title>DefaultComponent</title>
<polygon fill="#ffffb3" stroke="#000000" points="1328.8104,-122 1205.1896,-122 1205.1896,-86 1328.8104,-86 1328.8104,-122"/>
<text text-anchor="middle" x="1267" y="-99.8" font-family="Times,serif" font-size="14.00" fill="#000000">DefaultComponent</text>
</g>
<!-- DefaultModule -->
<g id="node5" class="node">
<title>DefaultModule</title>
<polygon fill="#8dd3c7" stroke="#000000" points="677.5285,-187 674.5285,-191 653.5285,-191 650.5285,-187 576.4715,-187 576.4715,-151 677.5285,-151 677.5285,-187"/>
<text text-anchor="middle" x="627" y="-164.8" font-family="Times,serif" font-size="14.00" fill="#000000">DefaultModule</text>
</g>
<!-- DefaultComponent&#45;&gt;DefaultModule -->
<g id="edge1" class="edge">
<title>DefaultComponent&#45;&gt;DefaultModule</title>
<path fill="none" stroke="#000000" d="M1267,-122.2921C1267,-144.2057 1267,-178 1267,-178 1267,-178 687.7547,-178 687.7547,-178"/>
<polygon fill="#000000" stroke="#000000" points="687.7547,-174.5001 677.7547,-178 687.7546,-181.5001 687.7547,-174.5001"/>
</g>
<!-- DocumentEditionComponent -->
<g id="node2" class="node">
<title>DocumentEditionComponent</title>
<polygon fill="#ffffb3" stroke="#000000" points="1187.3738,-122 1006.6262,-122 1006.6262,-86 1187.3738,-86 1187.3738,-122"/>
<text text-anchor="middle" x="1097" y="-99.8" font-family="Times,serif" font-size="14.00" fill="#000000">DocumentEditionComponent</text>
</g>
<!-- DocumentEditionComponent&#45;&gt;DefaultModule -->
<g id="edge2" class="edge">
<title>DocumentEditionComponent&#45;&gt;DefaultModule</title>
<path fill="none" stroke="#000000" d="M1097,-122.1061C1097,-141.3391 1097,-169 1097,-169 1097,-169 687.7448,-169 687.7448,-169"/>
<polygon fill="#000000" stroke="#000000" points="687.7448,-165.5001 677.7448,-169 687.7448,-172.5001 687.7448,-165.5001"/>
</g>
<!-- DocumentsDashboardComponent -->
<g id="node3" class="node">
<title>DocumentsDashboardComponent</title>
<polygon fill="#ffffb3" stroke="#000000" points="988.7352,-122 783.2648,-122 783.2648,-86 988.7352,-86 988.7352,-122"/>
<text text-anchor="middle" x="886" y="-99.8" font-family="Times,serif" font-size="14.00" fill="#000000">DocumentsDashboardComponent</text>
</g>
<!-- DocumentsDashboardComponent&#45;&gt;DefaultModule -->
<g id="edge3" class="edge">
<title>DocumentsDashboardComponent&#45;&gt;DefaultModule</title>
<path fill="none" stroke="#000000" d="M886,-122.027C886,-138.3976 886,-160 886,-160 886,-160 687.5527,-160 687.5527,-160"/>
<polygon fill="#000000" stroke="#000000" points="687.5527,-156.5001 677.5527,-160 687.5526,-163.5001 687.5527,-156.5001"/>
</g>
<!-- LoginComponent -->
<g id="node4" class="node">
<title>LoginComponent</title>
<polygon fill="#ffffb3" stroke="#000000" points="765.2758,-122 650.7242,-122 650.7242,-86 765.2758,-86 765.2758,-122"/>
<text text-anchor="middle" x="708" y="-99.8" font-family="Times,serif" font-size="14.00" fill="#000000">LoginComponent</text>
</g>
<!-- LoginComponent&#45;&gt;DefaultModule -->
<g id="edge4" class="edge">
<title>LoginComponent&#45;&gt;DefaultModule</title>
<path fill="none" stroke="#000000" d="M664.188,-122.1061C664.188,-122.1061 664.188,-140.991 664.188,-140.991"/>
<polygon fill="#000000" stroke="#000000" points="660.688,-140.9909 664.188,-150.991 667.688,-140.991 660.688,-140.9909"/>
</g>
<!-- DocumentEditionModule -->
<g id="node6" class="node">
<title>DocumentEditionModule</title>
<polygon fill="#8dd3c7" stroke="#000000" points="626.5912,-122 623.5912,-126 602.5912,-126 599.5912,-122 467.4088,-122 467.4088,-86 626.5912,-86 626.5912,-122"/>
<text text-anchor="middle" x="547" y="-99.8" font-family="Times,serif" font-size="14.00" fill="#000000">DocumentEditionModule</text>
</g>
<!-- DocumentEditionModule&#45;&gt;DefaultModule -->
<g id="edge5" class="edge">
<title>DocumentEditionModule&#45;&gt;DefaultModule</title>
<path fill="none" stroke="#000000" d="M601.391,-122.1061C601.391,-122.1061 601.391,-140.991 601.391,-140.991"/>
<polygon fill="#000000" stroke="#000000" points="597.891,-140.9909 601.391,-150.991 604.891,-140.991 597.891,-140.9909"/>
</g>
<!-- DocumentsDashboardModule -->
<g id="node7" class="node">
<title>DocumentsDashboardModule</title>
<polygon fill="#8dd3c7" stroke="#000000" points="448.9524,-122 445.9524,-126 424.9524,-126 421.9524,-122 265.0476,-122 265.0476,-86 448.9524,-86 448.9524,-122"/>
<text text-anchor="middle" x="357" y="-99.8" font-family="Times,serif" font-size="14.00" fill="#000000">DocumentsDashboardModule</text>
</g>
<!-- DocumentsDashboardModule&#45;&gt;DefaultModule -->
<g id="edge6" class="edge">
<title>DocumentsDashboardModule&#45;&gt;DefaultModule</title>
<path fill="none" stroke="#000000" d="M357,-122.027C357,-138.3976 357,-160 357,-160 357,-160 566.2151,-160 566.2151,-160"/>
<polygon fill="#000000" stroke="#000000" points="566.2151,-163.5001 576.2151,-160 566.215,-156.5001 566.2151,-163.5001"/>
</g>
<!-- MaterialModule -->
<g id="node8" class="node">
<title>MaterialModule</title>
<polygon fill="#8dd3c7" stroke="#000000" points="247.4706,-122 244.4706,-126 223.4706,-126 220.4706,-122 140.5294,-122 140.5294,-86 247.4706,-86 247.4706,-122"/>
<text text-anchor="middle" x="194" y="-99.8" font-family="Times,serif" font-size="14.00" fill="#000000">MaterialModule</text>
</g>
<!-- MaterialModule&#45;&gt;DefaultModule -->
<g id="edge7" class="edge">
<title>MaterialModule&#45;&gt;DefaultModule</title>
<path fill="none" stroke="#000000" d="M194,-122.1061C194,-141.3391 194,-169 194,-169 194,-169 566.0561,-169 566.0561,-169"/>
<polygon fill="#000000" stroke="#000000" points="566.0562,-172.5001 576.0561,-169 566.0561,-165.5001 566.0562,-172.5001"/>
</g>
<!-- SharedModule -->
<g id="node9" class="node">
<title>SharedModule</title>
<polygon fill="#8dd3c7" stroke="#000000" points="122.4231,-122 119.4231,-126 98.4231,-126 95.4231,-122 23.5769,-122 23.5769,-86 122.4231,-86 122.4231,-122"/>
<text text-anchor="middle" x="73" y="-99.8" font-family="Times,serif" font-size="14.00" fill="#000000">SharedModule</text>
</g>
<!-- SharedModule&#45;&gt;DefaultModule -->
<g id="edge8" class="edge">
<title>SharedModule&#45;&gt;DefaultModule</title>
<path fill="none" stroke="#000000" d="M73,-122.2921C73,-144.2057 73,-178 73,-178 73,-178 566.3676,-178 566.3676,-178"/>
<polygon fill="#000000" stroke="#000000" points="566.3676,-181.5001 576.3676,-178 566.3675,-174.5001 566.3676,-181.5001"/>
</g>
</g>
</svg>
